<svg xmlns="http://www.w3.org/2000/svg" width="265.061" height="85" viewBox="0 0 265.061 85"><defs><style>.a{fill:#fd914d;}.b{fill:#535ad1;}.c{isolation:isolate;}.d{fill:gray;}</style></defs><g transform="translate(-2302.881 -929.339)"><g transform="translate(2302.881 929.339)"><g transform="translate(0 0)"><path class="a" d="M2351.144,1014.339h-5.763a42.5,42.5,0,1,1,0-85h5.763v11.525h-5.763a30.975,30.975,0,1,0,0,61.949h5.763Z" transform="translate(-2302.881 -929.339)"/></g><g transform="translate(23.305 23.305)"><path class="b" d="M2669.112,1309h-11.525v-5.763a19.216,19.216,0,0,1,19.195-19.195h5.762v11.526h-5.762a7.677,7.677,0,0,0-7.669,7.669Z" transform="translate(-2657.587 -1284.044)"/></g></g><g class="c" transform="translate(2365.743 953.531)"><g class="c" transform="translate(0 0.025)"><path class="a" d="M3285.651,1333.727a1.348,1.348,0,0,1,1.02.437l2.889,3.084a13.748,13.748,0,0,1-5.3,4.128,18.453,18.453,0,0,1-7.54,1.408,17.956,17.956,0,0,1-7.115-1.348,15.382,15.382,0,0,1-5.366-3.752,16.671,16.671,0,0,1-3.4-5.706,22.307,22.307,0,0,1-.619-12.2,17.593,17.593,0,0,1,1.664-4.359,16.828,16.828,0,0,1,2.634-3.593,15.872,15.872,0,0,1,3.485-2.732,16.762,16.762,0,0,1,4.237-1.724,19.43,19.43,0,0,1,4.893-.6,19.18,19.18,0,0,1,3.679.34,17.847,17.847,0,0,1,3.242.947,14.946,14.946,0,0,1,2.78,1.469,15.564,15.564,0,0,1,2.294,1.882l-2.452,3.351a2.257,2.257,0,0,1-.559.558,1.557,1.557,0,0,1-.922.243,2.053,2.053,0,0,1-1.178-.413q-.6-.412-1.458-.922a10.561,10.561,0,0,0-2.161-.923,11.064,11.064,0,0,0-3.29-.413,10.065,10.065,0,0,0-4.054.8,8.8,8.8,0,0,0-3.169,2.319,10.692,10.692,0,0,0-2.052,3.727,16.043,16.043,0,0,0-.728,5.026,15.068,15.068,0,0,0,.789,5.063,11.106,11.106,0,0,0,2.161,3.752,9.1,9.1,0,0,0,3.205,2.319,9.809,9.809,0,0,0,3.921.789,18.742,18.742,0,0,0,2.246-.122,9.253,9.253,0,0,0,1.869-.412,8.3,8.3,0,0,0,1.628-.752,10.022,10.022,0,0,0,1.541-1.166,3.023,3.023,0,0,1,.559-.364A1.392,1.392,0,0,1,3285.651,1333.727Z" transform="translate(-3259.646 -1306.192)"/><path class="a" d="M3768.911,1465.133a11.207,11.207,0,0,1,2.744-3.375,5.671,5.671,0,0,1,3.642-1.238,4.491,4.491,0,0,1,2.767.8l-.437,4.953a1.122,1.122,0,0,1-.376.668,1.166,1.166,0,0,1-.691.182,8.161,8.161,0,0,1-1.117-.109,9.213,9.213,0,0,0-1.36-.109,4.682,4.682,0,0,0-1.639.267,4.108,4.108,0,0,0-1.275.753,5.424,5.424,0,0,0-1.008,1.19,11.247,11.247,0,0,0-.837,1.6v15.322h-6.7v-25.035h3.958a2.073,2.073,0,0,1,1.408.364,2.309,2.309,0,0,1,.559,1.262Z" transform="translate(-3729.575 -1449.836)"/><path class="a" d="M4018.768,1475.934a7.909,7.909,0,0,0,2,5.148,6.083,6.083,0,0,0,4.407,1.627,7.762,7.762,0,0,0,2.392-.328,11.534,11.534,0,0,0,1.773-.728l1.383-.728a2.6,2.6,0,0,1,1.227-.328,1.432,1.432,0,0,1,1.214.583l1.943,2.428a10.578,10.578,0,0,1-2.355,2.052,12.682,12.682,0,0,1-2.671,1.287,14.27,14.27,0,0,1-2.792.656,21.3,21.3,0,0,1-2.72.182,13.69,13.69,0,0,1-4.893-.862,11.093,11.093,0,0,1-3.957-2.55,11.925,11.925,0,0,1-2.659-4.189,15.953,15.953,0,0,1-.972-5.8,13.713,13.713,0,0,1,.838-4.807,11.3,11.3,0,0,1,6.252-6.592,12.645,12.645,0,0,1,5.1-.984,12.452,12.452,0,0,1,4.433.765,9.822,9.822,0,0,1,3.5,2.222,10.012,10.012,0,0,1,2.283,3.581,13.485,13.485,0,0,1,.813,4.844,8.683,8.683,0,0,1-.073,1.238,2.225,2.225,0,0,1-.243.777.888.888,0,0,1-.461.4,2.186,2.186,0,0,1-.752.109Zm10.538-3.982a7.028,7.028,0,0,0-.279-1.991,4.639,4.639,0,0,0-.887-1.676,4.3,4.3,0,0,0-1.53-1.153,5.258,5.258,0,0,0-2.21-.425,5.088,5.088,0,0,0-3.763,1.359,6.908,6.908,0,0,0-1.772,3.886Z" transform="translate(-3962.653 -1451.216)"/><path class="a" d="M4432.795,1297.912v36.2h-4.126a1.563,1.563,0,0,1-1.652-1.166l-.558-2.185a14.624,14.624,0,0,1-1.59,1.506,10.4,10.4,0,0,1-1.81,1.178,9.264,9.264,0,0,1-2.088.765,10.448,10.448,0,0,1-2.428.267,8.037,8.037,0,0,1-3.691-.85,8.3,8.3,0,0,1-2.9-2.489,12.29,12.29,0,0,1-1.907-4.018,19.84,19.84,0,0,1-.68-5.439,17.055,17.055,0,0,1,.765-5.2,12.661,12.661,0,0,1,2.173-4.152,10.148,10.148,0,0,1,3.4-2.744,9.742,9.742,0,0,1,4.419-1,8.615,8.615,0,0,1,3.436.607,9.142,9.142,0,0,1,2.538,1.651v-12.942Zm-6.7,17.677a5.336,5.336,0,0,0-2.053-1.53,6.3,6.3,0,0,0-2.342-.437,5.2,5.2,0,0,0-2.21.461,4.4,4.4,0,0,0-1.712,1.445,7.272,7.272,0,0,0-1.1,2.513,14.907,14.907,0,0,0-.389,3.642,17.1,17.1,0,0,0,.315,3.545,6.908,6.908,0,0,0,.911,2.355,3.547,3.547,0,0,0,1.445,1.3,4.393,4.393,0,0,0,1.894.4,5.809,5.809,0,0,0,2.975-.7,8.736,8.736,0,0,0,2.27-1.991Z" transform="translate(-4333.824 -1297.912)"/></g><g class="c" transform="translate(105.454 0)"><path class="b" d="M4872,1318.4v9.737h12.674v5.73H4872v14.059h-7.333V1312.69H4887.1v5.706Z" transform="translate(-4864.664 -1311.694)"/><path class="b" d="M5267.669,1301.617a3.688,3.688,0,0,1-.341,1.578,4.381,4.381,0,0,1-.911,1.287,4.139,4.139,0,0,1-1.334.874,4.253,4.253,0,0,1-1.639.316,3.947,3.947,0,0,1-1.566-.316,4.081,4.081,0,0,1-1.3-.874,4.3,4.3,0,0,1-.886-1.287,3.806,3.806,0,0,1-.328-1.578,3.891,3.891,0,0,1,.328-1.591,4.256,4.256,0,0,1,.886-1.3,4.1,4.1,0,0,1,1.3-.874,3.952,3.952,0,0,1,1.566-.316,4.258,4.258,0,0,1,1.639.316,4.156,4.156,0,0,1,1.334.874,4.338,4.338,0,0,1,.911,1.3A3.77,3.77,0,0,1,5267.669,1301.617Zm-.8,7.114v25.035h-6.7v-25.035Z" transform="translate(-5233.43 -1297.538)"/><path class="b" d="M5466.981,1465.3a16.146,16.146,0,0,1,1.565-1.335,10.474,10.474,0,0,1,1.725-1.044,9.418,9.418,0,0,1,1.967-.68,10.275,10.275,0,0,1,2.294-.243,8.807,8.807,0,0,1,3.618.7,7.454,7.454,0,0,1,2.66,1.967,8.453,8.453,0,0,1,1.625,3.011,12.812,12.812,0,0,1,.547,3.836v15.9H5476.3v-15.9a4.888,4.888,0,0,0-.972-3.242,3.532,3.532,0,0,0-2.864-1.154,5.936,5.936,0,0,0-2.647.608,9.109,9.109,0,0,0-2.355,1.7v17.992h-6.7v-25.035h4.128a1.624,1.624,0,0,1,1.676,1.166Z" transform="translate(-5421.598 -1451.192)"/><path class="b" d="M5866.2,1475.934a7.9,7.9,0,0,0,2,5.148,6.08,6.08,0,0,0,4.406,1.627,7.756,7.756,0,0,0,2.392-.328,11.514,11.514,0,0,0,1.774-.728l1.383-.728a2.606,2.606,0,0,1,1.226-.328,1.432,1.432,0,0,1,1.214.583l1.942,2.428a10.559,10.559,0,0,1-2.354,2.052,12.654,12.654,0,0,1-2.671,1.287,14.269,14.269,0,0,1-2.793.656,21.276,21.276,0,0,1-2.719.182,13.689,13.689,0,0,1-4.894-.862,11.1,11.1,0,0,1-3.958-2.55,11.926,11.926,0,0,1-2.659-4.189,15.959,15.959,0,0,1-.971-5.8,13.729,13.729,0,0,1,.837-4.807,11.289,11.289,0,0,1,6.253-6.592,12.646,12.646,0,0,1,5.1-.984,12.451,12.451,0,0,1,4.432.765,9.821,9.821,0,0,1,3.5,2.222,10,10,0,0,1,2.283,3.581,13.5,13.5,0,0,1,.813,4.844,8.643,8.643,0,0,1-.073,1.238,2.205,2.205,0,0,1-.243.777.887.887,0,0,1-.461.4,2.19,2.19,0,0,1-.752.109Zm10.539-3.982a7.011,7.011,0,0,0-.279-1.991,4.652,4.652,0,0,0-.886-1.676,4.321,4.321,0,0,0-1.531-1.153,5.259,5.259,0,0,0-2.21-.425,5.089,5.089,0,0,0-3.764,1.359,6.91,6.91,0,0,0-1.772,3.886Z" transform="translate(-5794.158 -1451.192)"/></g></g><g class="c" transform="translate(2558.945 958.241)"><g class="c"><path class="d" d="M6200.187,1369.23h3.479v.751h-1.288v3.486h-.895v-3.486h-1.3Zm9,0v4.237h-.78v-2.613l.057-.53-1.309,2.4a.31.31,0,0,1-.309.2h-.129a.321.321,0,0,1-.314-.2l-1.317-2.4.065.53v2.613h-.795v-4.237h.759a.4.4,0,0,1,.176.029.553.553,0,0,1,.132.121l1.209,2.169a2.517,2.517,0,0,1,.144.372,1.877,1.877,0,0,1,.149-.372l1.209-2.169a.449.449,0,0,1,.125-.121.394.394,0,0,1,.174-.029Z" transform="translate(-6200.187 -1369.23)"/></g></g></g></svg>