<svg width="28" height="28" viewBox="0 0 28 28" fill="none" xmlns="http://www.w3.org/2000/svg">
<g clip-path="url(#clip0_1170_1817)">
<path d="M14.0006 0C6.26893 0 0.000976562 6.26814 0.000976562 13.9999C0.000976562 21.7314 6.26893 28 14.0006 28C21.7324 28 28.0008 21.7314 28.0008 13.9999C28.0008 6.26814 21.7324 0 14.0006 0ZM14.0009 4.91741L22.2856 10.0835H5.7163L14.0009 4.91741ZM22.3888 18.333H22.3879C22.3879 19.1616 21.7164 19.8331 20.8879 19.8331H7.11398C6.28536 19.8331 5.61391 19.1615 5.61391 18.333V10.4122C5.61391 10.3245 5.62287 10.2393 5.63743 10.1556L13.5529 15.0914C13.5626 15.0975 13.573 15.1016 13.583 15.1072C13.5934 15.113 13.6041 15.1186 13.6147 15.1239C13.6706 15.1527 13.7282 15.176 13.7871 15.1912C13.7932 15.1929 13.7992 15.1936 13.8053 15.195C13.8699 15.2102 13.9353 15.2197 14.0006 15.2197H14.0011C14.0016 15.2197 14.002 15.2197 14.002 15.2197C14.0674 15.2197 14.1328 15.2105 14.1974 15.195C14.2035 15.1935 14.2095 15.1929 14.2156 15.1912C14.2744 15.176 14.3318 15.1527 14.388 15.1239C14.3986 15.1186 14.4093 15.113 14.4197 15.1072C14.4296 15.1016 14.4401 15.0975 14.4498 15.0914L22.3653 10.1556C22.3798 10.2393 22.3888 10.3244 22.3888 10.4122V18.333Z" fill="#F18A8A"/>
</g>
<defs>
<clipPath id="clip0_1170_1817">
<rect width="28" height="28" fill="white"/>
</clipPath>
</defs>
</svg>
