<svg width="28" height="28" viewBox="0 0 28 28" fill="none" xmlns="http://www.w3.org/2000/svg">
<path d="M14.0035 0H13.9965C6.27725 0 0 6.279 0 14C0 17.0625 0.987 19.901 2.66525 22.2057L0.9205 27.4067L6.30175 25.6865C8.5155 27.153 11.1562 28 14.0035 28C21.7227 28 28 21.7192 28 14C28 6.28075 21.7227 0 14.0035 0Z" fill="#33BB47"/>
<path d="M22.1495 19.7697C21.8117 20.7234 20.4712 21.5144 19.402 21.7454C18.6705 21.9012 17.715 22.0254 14.4985 20.6919C10.3842 18.9874 7.73472 14.8067 7.52822 14.5354C7.33047 14.2642 5.86572 12.3217 5.86572 10.3127C5.86572 8.3037 6.88597 7.32545 7.29722 6.90545C7.63497 6.5607 8.19322 6.4032 8.72872 6.4032C8.90197 6.4032 9.05772 6.41195 9.19772 6.41895C9.60897 6.43645 9.81547 6.46095 10.0867 7.1102C10.4245 7.92395 11.247 9.93295 11.345 10.1394C11.4447 10.3459 11.5445 10.6259 11.4045 10.8972C11.2732 11.1772 11.1577 11.3014 10.9512 11.5394C10.7447 11.7774 10.5487 11.9594 10.3422 12.2149C10.1532 12.4372 9.93972 12.6752 10.1777 13.0864C10.4157 13.4889 11.2382 14.8312 12.4492 15.9092C14.012 17.3004 15.279 17.7449 15.7322 17.9339C16.07 18.0739 16.4725 18.0407 16.7192 17.7782C17.0325 17.4404 17.4192 16.8804 17.813 16.3292C18.093 15.9337 18.4465 15.8847 18.8175 16.0247C19.1955 16.1559 21.1957 17.1447 21.607 17.3494C22.0182 17.5559 22.2895 17.6539 22.3892 17.8272C22.4872 18.0004 22.4872 18.8142 22.1495 19.7697Z" fill="#FAFAFA"/>
</svg>
