<svg xmlns="http://www.w3.org/2000/svg" width="22" height="29.333" viewBox="0 0 22 29.333">
  <path id="Icon_awesome-file-upload" data-name="Icon awesome-file-upload" d="M12.833,7.792V0H1.375A1.372,1.372,0,0,0,0,1.375V27.958a1.372,1.372,0,0,0,1.375,1.375h19.25A1.372,1.372,0,0,0,22,27.958V9.167H14.208A1.379,1.379,0,0,1,12.833,7.792Zm3.734,12.376H12.833v4.583a.916.916,0,0,1-.917.917H10.083a.916.916,0,0,1-.917-.917V20.167H5.432A.917.917,0,0,1,4.787,18.6l5.524-5.483a.977.977,0,0,1,1.377,0L17.212,18.6A.916.916,0,0,1,16.568,20.167ZM21.6,6.016,15.99.4a1.374,1.374,0,0,0-.974-.4h-.349V7.333H22V6.984A1.371,1.371,0,0,0,21.6,6.016Z" fill="#cbcbcb"/>
</svg>
