<svg xmlns="http://www.w3.org/2000/svg" width="174.837" height="49.794" viewBox="0 0 174.837 49.794">
  <g id="Group_198" data-name="Group 198" transform="translate(-199.717 -246.201)">
    <g id="Group_197" data-name="Group 197" transform="translate(199.717 246.201)">
      <g id="Group_192" data-name="Group 192" transform="translate(0 36.22)">
        <path id="Path_5161" data-name="Path 5161" d="M209.007,344.893h.024l2.3-9.17h1.032L209.587,346.3h-1.1l-2.445-9.346H206l-2.449,9.346h-1.1l-2.734-10.574h1l2.278,9.17h.025l2.465-9.17h1.1Z" transform="translate(-199.717 -335.723)" fill="#1a1818"/>
        <path id="Path_5162" data-name="Path 5162" d="M233.766,346.039c.188-1.445,1.005-2.7,2.563-2.7a2.412,2.412,0,0,1,2.409,2.7Zm5.907.727c.016-2.738-1.255-4.217-3.344-4.217-2.173,0-3.5,1.823-3.5,4.045,0,2.243,1.056,3.974,3.5,3.974a3.18,3.18,0,0,0,3.289-2.539h-.978a2.244,2.244,0,0,1-2.311,1.747c-1.691,0-2.568-1.366-2.563-3.011Z" transform="translate(-219.435 -339.787)" fill="#1a1818"/>
        <path id="Path_5163" data-name="Path 5163" d="M269.981,343.062h.877v7.605h-.877v-1.055a3.053,3.053,0,0,1-2.458,1.261c-2.031,0-2.7-1.213-2.7-2.8v-5.007h.882v5c0,1.3.576,2.023,1.951,2.023,1.455,0,2.326-1.215,2.326-2.879Z" transform="translate(-238.481 -340.093)" fill="#1a1818"/>
        <path id="Path_5164" data-name="Path 5164" d="M286.235,346.266a4.051,4.051,0,0,1,.192-1.444,2.232,2.232,0,0,1,2.112-1.48c1.412,0,1.972.685,1.972,2.057v4.962h.878V345.38a2.866,2.866,0,0,0-.379-1.738,2.65,2.65,0,0,0-2.327-1.092,3.193,3.193,0,0,0-2.449,1.268v-1.06h-.886v7.605h.886Z" transform="translate(-250.703 -339.787)" fill="#1a1818"/>
        <path id="Path_5165" data-name="Path 5165" d="M311.458,342.467c0,1.834-.915,3.244-2.577,3.244-1.488,0-2.589-1.075-2.6-2.984-.072-1.9.78-3.45,2.6-3.45C310.483,339.278,311.458,340.747,311.458,342.467Zm0-2.557a3.177,3.177,0,0,0-2.723-1.426c-2.324,0-3.385,1.892-3.385,4.028,0,2.246.969,3.991,3.427,3.991a3.08,3.08,0,0,0,2.647-1.544h.034V346.3h.873V335.723h-.873Z" transform="translate(-262.612 -335.723)" fill="#1a1818"/>
        <path id="Path_5166" data-name="Path 5166" d="M328.416,346.039c.169-1.445,1-2.7,2.553-2.7a2.414,2.414,0,0,1,2.411,2.7Zm5.907.727c.011-2.738-1.27-4.217-3.354-4.217-2.179,0-3.5,1.823-3.5,4.045,0,2.243,1.061,3.974,3.5,3.974a3.178,3.178,0,0,0,3.291-2.539h-.986a2.228,2.228,0,0,1-2.3,1.747c-1.69,0-2.573-1.366-2.553-3.011Z" transform="translate(-275.784 -339.787)" fill="#1a1818"/>
        <path id="Path_5167" data-name="Path 5167" d="M349.984,350.362H349.1v-7.605h.885v1.424h.025a2.3,2.3,0,0,1,2.488-1.632v.959c-1.984-.053-2.513,1.427-2.513,3.122Z" transform="translate(-288.66 -339.787)" fill="#1a1818"/>
        <path id="Path_5168" data-name="Path 5168" d="M361.408,347.986a2,2,0,0,0,2.286,1.79c1.277,0,1.872-.679,1.872-1.41,0-2.209-4.879-.647-4.879-3.647,0-1.264.986-2.17,2.679-2.17,1.643,0,2.713.671,2.945,2.39h-.9a1.79,1.79,0,0,0-2.06-1.6c-1.113,0-1.717.529-1.717,1.307,0,2.069,4.874.782,4.874,3.705,0,1.45-1.3,2.214-3.1,2.214a2.663,2.663,0,0,1-2.883-2.582Z" transform="translate(-295.46 -339.787)" fill="#1a1818"/>
        <path id="Path_5169" data-name="Path 5169" d="M381.518,347.583a3.983,3.983,0,0,1-1.021.178c-.865,0-1.349-.386-1.349-1.513v-5.563h-1.074v-.735h1.074v-2.115h.882v2.115h1.425v.735H380.03v5.21c0,.746.03,1.075.765,1.075a3.183,3.183,0,0,0,.723-.1Z" transform="translate(-305.912 -336.98)" fill="#1a1818"/>
        <path id="Path_5170" data-name="Path 5170" d="M394.845,346.365a7.2,7.2,0,0,1-2.271.428c-1.342.105-2.156.591-2.156,1.618,0,.924.814,1.366,1.652,1.366,1.394,0,2.775-.679,2.775-2.215Zm-1.484-.439a4.681,4.681,0,0,0,1.159-.241c.3-.146.325-.544.325-.8,0-.9-.527-1.546-1.9-1.546-1.219,0-2.045.4-2.214,1.716h-.895c.132-1.795,1.467-2.51,3.134-2.51,1.537,0,2.753.6,2.753,2.366v4.14c0,.693.178.858.928.588v.688a2.4,2.4,0,0,1-.69.153,1.921,1.921,0,0,1-.4-.043c-.589-.091-.694-.606-.7-1.134a3.734,3.734,0,0,1-2.828,1.261,2.255,2.255,0,0,1-2.542-2.19c0-1.278.881-2.059,2.651-2.281Z" transform="translate(-312.709 -339.787)" fill="#1a1818"/>
        <path id="Path_5171" data-name="Path 5171" d="M411.853,350.362h-.88v-7.605h.88v1.06a3.213,3.213,0,0,1,2.452-1.268,2.648,2.648,0,0,1,2.322,1.092A2.837,2.837,0,0,1,417,345.38v4.982h-.88V345.4c0-1.372-.557-2.057-1.962-2.057a2.233,2.233,0,0,0-2.119,1.48,3.97,3.97,0,0,0-.19,1.444Z" transform="translate(-325.501 -339.787)" fill="#1a1818"/>
        <path id="Path_5172" data-name="Path 5172" d="M437.047,342.467c0,1.834-.912,3.244-2.575,3.244-1.488,0-2.582-1.075-2.6-2.984-.072-1.9.784-3.45,2.6-3.45C436.073,339.278,437.047,340.747,437.047,342.467Zm0-2.557a3.162,3.162,0,0,0-2.714-1.426c-2.329,0-3.4,1.892-3.4,4.028,0,2.246.982,3.991,3.431,3.991a3.082,3.082,0,0,0,2.654-1.544h.03V346.3h.875V335.723h-.875Z" transform="translate(-337.385 -335.723)" fill="#1a1818"/>
        <path id="Path_5173" data-name="Path 5173" d="M463.286,352.74a3.8,3.8,0,0,0,.734.09c1,0,1.151-1.446,1.492-2.105l-2.961-7.663h.984l2.44,6.527,2.445-6.527h.951l-2.83,7.511c-.729,1.9-1.2,3.094-2.413,3.094a3.542,3.542,0,0,1-.841-.1Z" transform="translate(-356.211 -340.093)" fill="#1a1818"/>
        <path id="Path_5174" data-name="Path 5174" d="M487.9,346.562c0,1.627-.736,3.214-2.6,3.214-1.682,0-2.584-1.327-2.584-3.214,0-1.647.738-3.219,2.584-3.219C487.177,343.342,487.883,344.769,487.9,346.562Zm-2.6,4.006c2.135,0,3.537-1.6,3.537-4.006,0-2.237-1.149-4.013-3.537-4.013-2.343,0-3.524,1.79-3.524,4.013C481.785,349.222,483.38,350.547,485.309,350.568Z" transform="translate(-367.663 -339.787)" fill="#1a1818"/>
        <path id="Path_5175" data-name="Path 5175" d="M508.727,343.062h.886v7.605h-.886v-1.055a3.04,3.04,0,0,1-2.452,1.261c-2.031,0-2.705-1.213-2.705-2.8v-5.007h.887v5c0,1.3.57,2.023,1.949,2.023,1.453,0,2.321-1.215,2.321-2.879Z" transform="translate(-380.634 -340.093)" fill="#1a1818"/>
        <path id="Path_5176" data-name="Path 5176" d="M525.11,350.362h-.882v-7.605h.882v1.424h.032a2.286,2.286,0,0,1,2.485-1.632v.959c-1.987-.053-2.518,1.427-2.518,3.122Z" transform="translate(-392.934 -339.787)" fill="#1a1818"/>
        <path id="Path_5177" data-name="Path 5177" d="M552.23,349.487l1.994-6.425h.9l-2.472,7.605h-.943l-1.656-6.386h-.029l-1.689,6.386h-1.055l-2.327-7.605h.884l1.969,6.49,1.76-6.49h.979Z" transform="translate(-405.275 -340.093)" fill="#1a1818"/>
        <path id="Path_5178" data-name="Path 5178" d="M578.489,346.562c0,1.627-.736,3.214-2.592,3.214-1.685,0-2.582-1.327-2.582-3.214,0-1.647.737-3.219,2.582-3.219C577.764,343.342,578.469,344.769,578.489,346.562Zm-2.592,4.006c2.135,0,3.531-1.6,3.531-4.006,0-2.237-1.146-4.013-3.531-4.013-2.351,0-3.518,1.79-3.518,4.013C572.379,349.222,573.959,350.547,575.9,350.568Z" transform="translate(-421.604 -339.787)" fill="#1a1818"/>
        <path id="Path_5179" data-name="Path 5179" d="M595.137,346.631c0-1.7.53-3.175,2.509-3.122v-.959a2.292,2.292,0,0,0-2.481,1.632h-.028v-1.424h-.885v7.605h.885Z" transform="translate(-434.627 -339.787)" fill="#1a1818"/>
        <path id="Path_5180" data-name="Path 5180" d="M606.934,346.3V335.723h.883V346.3Z" transform="translate(-442.178 -335.723)" fill="#1a1818"/>
        <path id="Path_5181" data-name="Path 5181" d="M620.56,342.467c0,1.834-.908,3.244-2.568,3.244-1.477,0-2.581-1.075-2.6-2.984-.073-1.9.78-3.45,2.6-3.45C619.593,339.278,620.56,340.747,620.56,342.467Zm0-2.557a3.142,3.142,0,0,0-2.71-1.426c-2.327,0-3.388,1.892-3.388,4.028,0,2.246.977,3.991,3.427,3.991a3.078,3.078,0,0,0,2.646-1.544h.023V346.3h.884V335.723h-.884Z" transform="translate(-446.661 -335.723)" fill="#1a1818"/>
      </g>
      <g id="Group_196" data-name="Group 196" transform="translate(0.054)">
        <rect id="Rectangle_348" data-name="Rectangle 348" width="174.783" height="29.131" fill="#003b7e"/>
        <rect id="Rectangle_349" data-name="Rectangle 349" width="145.653" height="29.131" transform="translate(29.13)" fill="#003b7e"/>
        <g id="Group_194" data-name="Group 194" transform="translate(38.393 7.303)">
          <g id="Group_193" data-name="Group 193">
            <path id="Path_5182" data-name="Path 5182" d="M294.744,278.944V265.162h4.535v4.654h4.248v-4.654h4.543v13.782h-4.543V273.6h-4.248v5.345Z" transform="translate(-294.744 -264.794)" fill="#fff"/>
            <path id="Path_5183" data-name="Path 5183" d="M338.884,268.589h1.175a4.849,4.849,0,0,1,1.862.264,1.743,1.743,0,0,1,.737.6,3.316,3.316,0,0,1,.46,1.084,6.1,6.1,0,0,1,.159,1.408,5.093,5.093,0,0,1-.349,2.023,2.343,2.343,0,0,1-.993,1.182,3.975,3.975,0,0,1-1.909.36l-1.142.011Zm1.751,10.354a10.65,10.65,0,0,0,2.681-.278,6.068,6.068,0,0,0,1.776-.736,5.088,5.088,0,0,0,1.263-1.223,7.093,7.093,0,0,0,.976-2,8.737,8.737,0,0,0,.394-2.755,7.936,7.936,0,0,0-.873-3.868,5.1,5.1,0,0,0-2.428-2.25,9.122,9.122,0,0,0-3.673-.668h-6.3v13.782Z" transform="translate(-318.385 -264.794)" fill="#fff"/>
            <path id="Path_5184" data-name="Path 5184" d="M372.4,278.944V265.162h10.752v3.4h-6.278v2.208h5.021v3.309h-5.021v4.865Z" transform="translate(-340.981 -264.794)" fill="#fff"/>
            <path id="Path_5185" data-name="Path 5185" d="M416.14,269.89h-4.279a2.54,2.54,0,0,0-.745-1.615,2.253,2.253,0,0,0-1.586-.567,2.409,2.409,0,0,0-1.955.928,4.778,4.778,0,0,0-.759,3.015,5.777,5.777,0,0,0,.325,2.186,2.39,2.39,0,0,0,.9,1.122,2.655,2.655,0,0,0,1.444.356,2.245,2.245,0,0,0,1.656-.575,2.557,2.557,0,0,0,.74-1.7h4.361a7.868,7.868,0,0,1-.517,2.158,5.558,5.558,0,0,1-1.241,1.746A5.938,5.938,0,0,1,412.4,278.3a7.53,7.53,0,0,1-2.79.47,8.871,8.871,0,0,1-2.91-.459,6.178,6.178,0,0,1-3.674-3.3,7.911,7.911,0,0,1-.723-3.444,8.4,8.4,0,0,1,.522-2.992,6.688,6.688,0,0,1,1.438-2.328,6.241,6.241,0,0,1,2.033-1.41,7.892,7.892,0,0,1,3.138-.6,8.676,8.676,0,0,1,2.812.442A5.319,5.319,0,0,1,414.4,266a5.964,5.964,0,0,1,1.306,1.984A6.577,6.577,0,0,1,416.14,269.89Z" transform="translate(-358.786 -264.252)" fill="#fff"/>
            <path id="Path_5186" data-name="Path 5186" d="M463.825,268.266a5.408,5.408,0,0,1,1.259.088,1.234,1.234,0,0,1,.64.423,1.134,1.134,0,0,1,.245.718,1.077,1.077,0,0,1-.407.864,2.4,2.4,0,0,1-1.471.333h-1.707v-2.426Zm1.137,10.678a11.857,11.857,0,0,0,2.273-.148,6.852,6.852,0,0,0,1.342-.473,3.856,3.856,0,0,0,1.019-.7,3.269,3.269,0,0,0,.8-1.2,4.345,4.345,0,0,0,.285-1.6,3.342,3.342,0,0,0-.623-2.071,3.061,3.061,0,0,0-1.687-1.134,3.358,3.358,0,0,0,1.8-2.918,3.1,3.1,0,0,0-1.571-2.8,7.447,7.447,0,0,0-3.765-.74H458v13.782Zm-.728-5.769a3.091,3.091,0,0,1,1.769.337,1.282,1.282,0,0,1-.024,1.923,2.861,2.861,0,0,1-1.745.352h-1.851v-2.611Z" transform="translate(-391.946 -264.794)" fill="#fff"/>
            <path id="Path_5187" data-name="Path 5187" d="M501.218,274.309h-2.884l1.422-5.013Zm-4.237,4.634.521-1.81h4.513l.528,1.81h4.508l-4.941-13.782H497.5l-4.948,13.782Z" transform="translate(-412.521 -264.794)" fill="#fff"/>
            <path id="Path_5188" data-name="Path 5188" d="M533.092,278.944V265.162h4.223l4.766,7.379v-7.379h4.343v13.782h-4.313l-4.664-7.2v7.2Z" transform="translate(-436.659 -264.794)" fill="#fff"/>
            <path id="Path_5189" data-name="Path 5189" d="M573.512,278.944V265.162H577.9v4.546l4.1-4.546h5.324l-5.049,5.188,5.574,8.593h-5.428l-3.315-5.489-1.205,1.19v4.3Z" transform="translate(-460.725 -264.794)" fill="#fff"/>
          </g>
        </g>
        <g id="Group_195" data-name="Group 195">
          <rect id="Rectangle_350" data-name="Rectangle 350" width="29.13" height="29.131" fill="#e50019"/>
          <rect id="Rectangle_351" data-name="Rectangle 351" width="18.934" height="18.935" transform="translate(5.098 5.097)" fill="#fff"/>
          <rect id="Rectangle_352" data-name="Rectangle 352" width="2.914" height="29.131" transform="translate(13.108)" fill="#fff"/>
          <rect id="Rectangle_353" data-name="Rectangle 353" width="29.13" height="2.913" transform="translate(0 13.108)" fill="#fff"/>
          <rect id="Rectangle_354" data-name="Rectangle 354" width="8.739" height="8.74" transform="translate(10.195 10.195)" fill="#003b7e"/>
        </g>
      </g>
    </g>
  </g>
</svg>
