<svg xmlns="http://www.w3.org/2000/svg" width="126.404" height="36" viewBox="0 0 126.404 36">
  <g id="Group_198" data-name="Group 198" transform="translate(-199.717 -246.201)">
    <g id="Group_197" data-name="Group 197" transform="translate(199.717 246.201)">
      <g id="Group_192" data-name="Group 192" transform="translate(0 26.186)">
        <path id="Path_5161" data-name="Path 5161" d="M206.433,342.353h.017l1.663-6.63h.746l-2.007,7.645h-.8l-1.768-6.757h-.029l-1.77,6.757h-.795l-1.977-7.645h.723l1.647,6.63h.018l1.782-6.63h.8Z" transform="translate(-199.717 -335.723)" fill="#1a1818"/>
        <path id="Path_5162" data-name="Path 5162" d="M233.508,345.072c.136-1.045.727-1.949,1.853-1.949a1.744,1.744,0,0,1,1.742,1.949Zm4.271.526c.011-1.98-.908-3.049-2.418-3.049a2.642,2.642,0,0,0-2.527,2.925c0,1.621.763,2.873,2.527,2.873a2.3,2.3,0,0,0,2.378-1.836h-.707a1.623,1.623,0,0,1-1.671,1.263c-1.223,0-1.856-.987-1.853-2.177Z" transform="translate(-223.147 -340.552)" fill="#1a1818"/>
        <path id="Path_5163" data-name="Path 5163" d="M268.552,343.062h.634v5.5h-.634V347.8a2.208,2.208,0,0,1-1.777.912,1.769,1.769,0,0,1-1.953-2.028v-3.62h.638v3.612c0,.941.417,1.463,1.41,1.463,1.052,0,1.682-.878,1.682-2.081Z" transform="translate(-245.778 -340.915)" fill="#1a1818"/>
        <path id="Path_5164" data-name="Path 5164" d="M285.989,345.236a2.929,2.929,0,0,1,.139-1.044,1.613,1.613,0,0,1,1.527-1.07c1.021,0,1.426.5,1.426,1.487V348.2h.635v-3.6a2.072,2.072,0,0,0-.274-1.257,1.916,1.916,0,0,0-1.683-.79,2.308,2.308,0,0,0-1.771.916V342.7h-.64v5.5h.64Z" transform="translate(-260.301 -340.552)" fill="#1a1818"/>
        <path id="Path_5165" data-name="Path 5165" d="M309.766,340.6c0,1.326-.662,2.346-1.863,2.346a1.905,1.905,0,0,1-1.878-2.157c-.052-1.376.564-2.494,1.878-2.494C309.061,338.293,309.766,339.355,309.766,340.6Zm0-1.848a2.3,2.3,0,0,0-1.969-1.031c-1.68,0-2.447,1.368-2.447,2.912,0,1.624.7,2.886,2.478,2.886a2.227,2.227,0,0,0,1.914-1.116h.025v.967h.631v-7.645h-.631Z" transform="translate(-274.451 -335.723)" fill="#1a1818"/>
        <path id="Path_5166" data-name="Path 5166" d="M328.155,345.072A1.931,1.931,0,0,1,330,343.123a1.745,1.745,0,0,1,1.743,1.949Zm4.271.526c.008-1.98-.918-3.049-2.425-3.049a2.639,2.639,0,0,0-2.527,2.925c0,1.621.767,2.873,2.527,2.873a2.3,2.3,0,0,0,2.38-1.836h-.713A1.611,1.611,0,0,1,330,347.774a1.906,1.906,0,0,1-1.846-2.177Z" transform="translate(-290.103 -340.552)" fill="#1a1818"/>
        <path id="Path_5167" data-name="Path 5167" d="M349.739,348.2h-.64v-5.5h.64v1.03h.018a1.661,1.661,0,0,1,1.8-1.18v.694c-1.434-.038-1.817,1.032-1.817,2.257Z" transform="translate(-305.403 -340.552)" fill="#1a1818"/>
        <path id="Path_5168" data-name="Path 5168" d="M361.162,346.48a1.446,1.446,0,0,0,1.653,1.294c.923,0,1.353-.491,1.353-1.02,0-1.6-3.527-.467-3.527-2.637,0-.914.713-1.569,1.937-1.569a1.86,1.86,0,0,1,2.129,1.728h-.652a1.294,1.294,0,0,0-1.489-1.155c-.8,0-1.241.383-1.241.945,0,1.5,3.524.565,3.524,2.679,0,1.048-.943,1.6-2.244,1.6a1.926,1.926,0,0,1-2.084-1.867Z" transform="translate(-313.483 -340.552)" fill="#1a1818"/>
        <path id="Path_5169" data-name="Path 5169" d="M380.564,344.882a2.879,2.879,0,0,1-.738.128c-.625,0-.975-.279-.975-1.094v-4.022h-.776v-.531h.776v-1.529h.638v1.529h1.03v.531h-1.03v3.767c0,.539.022.777.553.777a2.3,2.3,0,0,0,.523-.072Z" transform="translate(-325.902 -337.217)" fill="#1a1818"/>
        <path id="Path_5170" data-name="Path 5170" d="M393.361,345.308a5.2,5.2,0,0,1-1.642.309c-.97.076-1.558.427-1.558,1.17,0,.668.589.987,1.194.987,1.008,0,2.006-.491,2.006-1.6Zm-1.073-.317a3.384,3.384,0,0,0,.838-.174c.217-.105.235-.393.235-.576,0-.65-.381-1.118-1.372-1.118-.881,0-1.478.286-1.6,1.241h-.647c.1-1.3,1.061-1.814,2.266-1.814,1.112,0,1.99.436,1.99,1.71v2.993c0,.5.129.62.671.425v.5a1.74,1.74,0,0,1-.5.111,1.39,1.39,0,0,1-.289-.031c-.426-.066-.5-.438-.508-.82a2.7,2.7,0,0,1-2.045.912,1.63,1.63,0,0,1-1.838-1.583c0-.924.637-1.488,1.916-1.649Z" transform="translate(-333.978 -340.552)" fill="#1a1818"/>
        <path id="Path_5171" data-name="Path 5171" d="M411.609,348.2h-.636v-5.5h.636v.766a2.323,2.323,0,0,1,1.773-.916,1.914,1.914,0,0,1,1.678.79,2.051,2.051,0,0,1,.273,1.257v3.6H414.7V344.61c0-.992-.4-1.487-1.419-1.487a1.614,1.614,0,0,0-1.532,1.07,2.87,2.87,0,0,0-.137,1.044Z" transform="translate(-349.178 -340.552)" fill="#1a1818"/>
        <path id="Path_5172" data-name="Path 5172" d="M435.353,340.6c0,1.326-.659,2.346-1.862,2.346-1.076,0-1.867-.777-1.882-2.157-.052-1.376.567-2.494,1.882-2.494C434.649,338.293,435.353,339.355,435.353,340.6Zm0-1.848a2.286,2.286,0,0,0-1.962-1.031c-1.684,0-2.458,1.368-2.458,2.912,0,1.624.71,2.886,2.481,2.886a2.228,2.228,0,0,0,1.919-1.116h.022v.967h.632v-7.645h-.632Z" transform="translate(-363.299 -335.723)" fill="#1a1818"/>
        <path id="Path_5173" data-name="Path 5173" d="M463.082,350.059a2.744,2.744,0,0,0,.531.065c.72,0,.832-1.045,1.078-1.522l-2.141-5.54h.711l1.764,4.719,1.768-4.719h.688l-2.046,5.43c-.527,1.371-.87,2.237-1.745,2.237a2.559,2.559,0,0,1-.608-.075Z" transform="translate(-385.669 -340.915)" fill="#1a1818"/>
        <path id="Path_5174" data-name="Path 5174" d="M486.209,345.45c0,1.176-.532,2.324-1.876,2.324-1.216,0-1.868-.96-1.868-2.324,0-1.191.534-2.328,1.868-2.328C485.683,343.123,486.194,344.154,486.209,345.45Zm-1.876,2.9c1.544,0,2.557-1.154,2.557-2.9,0-1.618-.831-2.9-2.557-2.9-1.694,0-2.547,1.294-2.547,2.9A2.568,2.568,0,0,0,484.333,348.347Z" transform="translate(-399.277 -340.552)" fill="#1a1818"/>
        <path id="Path_5175" data-name="Path 5175" d="M507.3,343.062h.641v5.5H507.3V347.8a2.2,2.2,0,0,1-1.773.912,1.771,1.771,0,0,1-1.956-2.028v-3.62h.641v3.612c0,.941.412,1.463,1.409,1.463,1.051,0,1.678-.878,1.678-2.081Z" transform="translate(-414.689 -340.915)" fill="#1a1818"/>
        <path id="Path_5176" data-name="Path 5176" d="M524.866,348.2h-.638v-5.5h.638v1.03h.023a1.653,1.653,0,0,1,1.8-1.18v.694c-1.436-.038-1.82,1.032-1.82,2.257Z" transform="translate(-429.305 -340.552)" fill="#1a1818"/>
        <path id="Path_5177" data-name="Path 5177" d="M550.214,347.707l1.441-4.645h.652l-1.787,5.5h-.682l-1.2-4.617h-.021L547.4,348.56h-.763l-1.682-5.5h.639l1.424,4.692,1.273-4.692H549Z" transform="translate(-443.969 -340.915)" fill="#1a1818"/>
        <path id="Path_5178" data-name="Path 5178" d="M576.8,345.45c0,1.176-.532,2.324-1.874,2.324-1.219,0-1.867-.96-1.867-2.324,0-1.191.533-2.328,1.867-2.328C576.272,343.123,576.782,344.154,576.8,345.45Zm-1.874,2.9c1.543,0,2.553-1.154,2.553-2.9,0-1.618-.828-2.9-2.553-2.9-1.7,0-2.543,1.294-2.543,2.9C572.379,347.373,573.521,348.331,574.922,348.347Z" transform="translate(-463.371 -340.552)" fill="#1a1818"/>
        <path id="Path_5179" data-name="Path 5179" d="M594.892,345.5c0-1.226.383-2.3,1.814-2.257v-.694a1.657,1.657,0,0,0-1.794,1.18h-.02V342.7h-.64v5.5h.64Z" transform="translate(-478.846 -340.552)" fill="#1a1818"/>
        <path id="Path_5180" data-name="Path 5180" d="M606.934,343.368v-7.645h.639v7.645Z" transform="translate(-487.818 -335.723)" fill="#1a1818"/>
        <path id="Path_5181" data-name="Path 5181" d="M618.871,340.6c0,1.326-.656,2.346-1.856,2.346a1.911,1.911,0,0,1-1.877-2.157c-.053-1.376.564-2.494,1.877-2.494C618.172,338.293,618.871,339.355,618.871,340.6Zm0-1.848a2.272,2.272,0,0,0-1.959-1.031c-1.682,0-2.449,1.368-2.449,2.912,0,1.624.707,2.886,2.478,2.886a2.225,2.225,0,0,0,1.913-1.116h.017v.967h.639v-7.645h-.639Z" transform="translate(-493.145 -335.723)" fill="#1a1818"/>
      </g>
      <g id="Group_196" data-name="Group 196" transform="translate(0.039)">
        <rect id="Rectangle_348" data-name="Rectangle 348" width="126.365" height="21.061" fill="#003b7e"/>
        <rect id="Rectangle_349" data-name="Rectangle 349" width="105.305" height="21.061" transform="translate(21.061)" fill="#003b7e"/>
        <g id="Group_194" data-name="Group 194" transform="translate(27.758 5.28)">
          <g id="Group_193" data-name="Group 193">
            <path id="Path_5182" data-name="Path 5182" d="M294.744,275.126v-9.964h3.279v3.364h3.071v-3.364h3.284v9.964h-3.284v-3.864h-3.071v3.864Z" transform="translate(-294.744 -264.896)" fill="#fff"/>
            <path id="Path_5183" data-name="Path 5183" d="M337.656,267.64h.85a3.505,3.505,0,0,1,1.346.191,1.26,1.26,0,0,1,.533.435,2.4,2.4,0,0,1,.333.784,4.414,4.414,0,0,1,.115,1.018,3.682,3.682,0,0,1-.252,1.463,1.694,1.694,0,0,1-.718.854,2.874,2.874,0,0,1-1.38.26l-.826.008Zm1.266,7.486a7.7,7.7,0,0,0,1.938-.2,4.387,4.387,0,0,0,1.284-.532,3.677,3.677,0,0,0,.913-.884,5.127,5.127,0,0,0,.706-1.448,6.316,6.316,0,0,0,.285-1.992,5.737,5.737,0,0,0-.632-2.8,3.685,3.685,0,0,0-1.756-1.627,6.6,6.6,0,0,0-2.656-.483h-4.555v9.964Z" transform="translate(-322.835 -264.896)" fill="#fff"/>
            <path id="Path_5184" data-name="Path 5184" d="M372.4,275.126v-9.964h7.774v2.458h-4.539v1.6h3.63v2.392h-3.63v3.517Z" transform="translate(-349.684 -264.896)" fill="#fff"/>
            <path id="Path_5185" data-name="Path 5185" d="M412.307,268.328h-3.094a1.837,1.837,0,0,0-.539-1.168,1.629,1.629,0,0,0-1.147-.41,1.741,1.741,0,0,0-1.413.671,3.454,3.454,0,0,0-.549,2.18,4.177,4.177,0,0,0,.235,1.58,1.728,1.728,0,0,0,.648.811,1.919,1.919,0,0,0,1.044.258,1.623,1.623,0,0,0,1.2-.416,1.849,1.849,0,0,0,.535-1.227h3.153a5.689,5.689,0,0,1-.374,1.56,4.019,4.019,0,0,1-.9,1.262,4.293,4.293,0,0,1-1.5.982,5.444,5.444,0,0,1-2.017.34,6.414,6.414,0,0,1-2.1-.332,4.466,4.466,0,0,1-2.657-2.383,5.719,5.719,0,0,1-.523-2.49,6.072,6.072,0,0,1,.377-2.163,4.836,4.836,0,0,1,1.04-1.683,4.513,4.513,0,0,1,1.47-1.019,5.706,5.706,0,0,1,2.269-.43,6.273,6.273,0,0,1,2.033.319,3.846,3.846,0,0,1,1.558.944A4.312,4.312,0,0,1,412,266.95,4.754,4.754,0,0,1,412.307,268.328Z" transform="translate(-370.841 -264.252)" fill="#fff"/>
            <path id="Path_5186" data-name="Path 5186" d="M462.21,267.406a3.909,3.909,0,0,1,.91.063.893.893,0,0,1,.463.306.82.82,0,0,1,.177.519.779.779,0,0,1-.294.625,1.738,1.738,0,0,1-1.064.241h-1.234v-1.754Zm.822,7.72a8.568,8.568,0,0,0,1.643-.107,4.952,4.952,0,0,0,.971-.342,2.788,2.788,0,0,0,.737-.5,2.363,2.363,0,0,0,.581-.867,3.141,3.141,0,0,0,.206-1.159,2.416,2.416,0,0,0-.451-1.5,2.213,2.213,0,0,0-1.22-.82,2.428,2.428,0,0,0,1.3-2.109,2.24,2.24,0,0,0-1.136-2.024,5.385,5.385,0,0,0-2.722-.535H458v9.964Zm-.526-4.171a2.234,2.234,0,0,1,1.279.243.927.927,0,0,1-.017,1.39,2.068,2.068,0,0,1-1.262.254h-1.338v-1.888Z" transform="translate(-410.243 -264.896)" fill="#fff"/>
            <path id="Path_5187" data-name="Path 5187" d="M498.818,271.775h-2.085l1.028-3.624Zm-3.064,3.35.376-1.308h3.263l.382,1.308h3.259l-3.572-9.964H496.13l-3.577,9.964Z" transform="translate(-434.692 -264.896)" fill="#fff"/>
            <path id="Path_5188" data-name="Path 5188" d="M533.092,275.126v-9.964h3.053l3.446,5.335v-5.335h3.14v9.964h-3.118l-3.372-5.2v5.2Z" transform="translate(-463.372 -264.896)" fill="#fff"/>
            <path id="Path_5189" data-name="Path 5189" d="M573.512,275.126v-9.964h3.175v3.287l2.964-3.287H583.5l-3.651,3.751,4.03,6.213h-3.924l-2.4-3.969-.871.861v3.108Z" transform="translate(-491.969 -264.896)" fill="#fff"/>
          </g>
        </g>
        <g id="Group_195" data-name="Group 195">
          <rect id="Rectangle_350" data-name="Rectangle 350" width="21.061" height="21.061" fill="#e50019"/>
          <rect id="Rectangle_351" data-name="Rectangle 351" width="13.689" height="13.69" transform="translate(3.686 3.685)" fill="#fff"/>
          <rect id="Rectangle_352" data-name="Rectangle 352" width="2.106" height="21.061" transform="translate(9.477)" fill="#fff"/>
          <rect id="Rectangle_353" data-name="Rectangle 353" width="21.061" height="2.106" transform="translate(0 9.477)" fill="#fff"/>
          <rect id="Rectangle_354" data-name="Rectangle 354" width="6.318" height="6.319" transform="translate(7.371 7.371)" fill="#003b7e"/>
        </g>
      </g>
    </g>
  </g>
</svg>
