<svg xmlns="http://www.w3.org/2000/svg" width="87.258" height="73.072" viewBox="0 0 87.258 73.072">
  <g id="Group_188" data-name="Group 188" transform="translate(-481.371 -617)">
    <g id="Group_180" data-name="Group 180" transform="translate(-56.228 1198.775) rotate(-90)">
      <path id="Path_5150" data-name="Path 5150" d="M2352.426,1016.6h-5.916a43.629,43.629,0,1,1,0-87.258h5.916v11.832h-5.916a31.8,31.8,0,0,0,0,63.595h5.916Z" transform="translate(-1794.177 -391.741)" fill="#fff"/>
      <path id="Path_5151" data-name="Path 5151" d="M2669.418,1309.665h-11.832v-5.916a19.727,19.727,0,0,1,19.7-19.7h5.915v11.832h-5.915a7.881,7.881,0,0,0-7.873,7.873Z" transform="translate(-2124.959 -722.521)" fill="#fff"/>
    </g>
    <circle id="Ellipse_193" data-name="Ellipse 193" cx="4.5" cy="4.5" r="4.5" transform="translate(501 617)" fill="#fff"/>
    <circle id="Ellipse_194" data-name="Ellipse 194" cx="4.5" cy="4.5" r="4.5" transform="translate(537 617)" fill="#fff"/>
  </g>
</svg>
