<svg xmlns="http://www.w3.org/2000/svg" width="138.571" height="27.64" viewBox="0 0 138.571 27.64">
  <g id="paysense-blue" transform="translate(-0.27 -0.089)">
    <path id="Path_5369" data-name="Path 5369" d="M22.594,11.2A11.162,11.162,0,0,0,.27,11.245v.5L6.315,5.69a7.663,7.663,0,0,1,5.5-1.987A7.547,7.547,0,1,1,4.376,13.955L1.67,16.665a9.569,9.569,0,0,0,1.713,2.3l8.028,8.761,8.117-8.761A11.326,11.326,0,0,0,22.595,11.2Z" fill="#2b35e0"/>
    <path id="Path_5370" data-name="Path 5370" d="M11.184,14.316A3.059,3.059,0,1,0,9.425,8.942l-.4.406a2.965,2.965,0,0,0-.677,2.213A3.166,3.166,0,0,0,11.184,14.316Z" fill="#2b35e0"/>
    <path id="Path_5371" data-name="Path 5371" d="M9.471,8.942l-.406.406Z" fill="#2b35e0"/>
    <g id="Group_616" data-name="Group 616">
      <path id="Path_5372" data-name="Path 5372" d="M43.122,12.393a3.685,3.685,0,0,1-1.754,1.14,7.385,7.385,0,0,1-2.63.408h-2.55v6.11H33.159V4.734h5.58a5.705,5.705,0,0,1,4.064,1.3,4.337,4.337,0,0,1,1.435,3.1,5.194,5.194,0,0,1-1.116,3.26Zm-6.854-.815h2.55a2.364,2.364,0,0,0,1.753-.652,2.521,2.521,0,0,0,0-3.26,2.749,2.749,0,0,0-1.753-.651h-2.55v4.563Zm11.237,7.089A6.743,6.743,0,0,1,45.911,14.1a6.386,6.386,0,0,1,1.594-4.482,5.078,5.078,0,0,1,4.065-1.71,4.09,4.09,0,0,1,3.746,2.118V8.074h3.028V20.3H55.316V18.26a4.168,4.168,0,0,1-3.746,2.2,5.149,5.149,0,0,1-4.065-1.792Zm6.775-1.874a4.144,4.144,0,0,0,0-5.3,3.011,3.011,0,0,0-4.384-.081l-.08.081A3.661,3.661,0,0,0,48.86,14.1a3.725,3.725,0,0,0,.957,2.689,2.919,2.919,0,0,0,4.3.081C54.28,16.874,54.28,16.874,54.28,16.793Zm10.28,3.1L59.938,7.829h3.348l3.028,8.72L69.5,7.829h3.109l-7.333,18.09H62.09ZM79.385,6.852a2.2,2.2,0,0,0-1.435.489,1.639,1.639,0,0,0-.558,1.3,2.289,2.289,0,0,0,.4,1.3,3.332,3.332,0,0,0,1.116.733,8.289,8.289,0,0,0,1.514.408c.558.163,1.116.326,1.594.489a6.455,6.455,0,0,1,1.514.733,3.232,3.232,0,0,1,1.116,1.222,4.1,4.1,0,0,1,.4,1.956,4.558,4.558,0,0,1-1.435,3.26,5.533,5.533,0,0,1-3.826,1.384,6.07,6.07,0,0,1-3.9-1.222,4.381,4.381,0,0,1-1.514-3.34h3.188a1.969,1.969,0,0,0,2.231,2.036,2.4,2.4,0,0,0,1.594-.57,1.718,1.718,0,0,0,.558-1.467,1.828,1.828,0,0,0-.8-1.466,5.057,5.057,0,0,0-1.912-.815,18,18,0,0,1-2.232-.652,3.554,3.554,0,0,1-1.913-1.3,3.747,3.747,0,0,1-.8-2.444,4.307,4.307,0,0,1,1.435-3.34,5.617,5.617,0,0,1,3.746-1.223,6.592,6.592,0,0,1,3.746,1.06,4.264,4.264,0,0,1,1.514,3.34H81.457a1.756,1.756,0,0,0-.637-1.385,2.357,2.357,0,0,0-1.435-.49ZM93.332,20.46a5.7,5.7,0,0,1-4.3-1.712,6.286,6.286,0,0,1-1.674-4.563,6.159,6.159,0,0,1,1.674-4.563,5.693,5.693,0,0,1,4.3-1.71,5.993,5.993,0,0,1,4.384,1.71A6.093,6.093,0,0,1,99.389,14.1a6.277,6.277,0,0,1-.08,1.222H90.463a2.764,2.764,0,0,0,.877,1.955,2.815,2.815,0,0,0,1.913.734,2.625,2.625,0,0,0,2.39-1.3h3.348A5.479,5.479,0,0,1,97,19.563a7.2,7.2,0,0,1-3.666.9Zm1.993-9.208a3.02,3.02,0,0,0-1.993-.733,2.679,2.679,0,0,0-1.912.733,2.628,2.628,0,0,0-.877,1.955h5.738A2.864,2.864,0,0,0,95.325,11.252Zm9.085-3.259V9.785a4.079,4.079,0,0,1,3.746-2.037A4.344,4.344,0,0,1,111.5,9.133a5.282,5.282,0,0,1,1.275,3.83v7.17H109.75V13.452a3.03,3.03,0,0,0-.717-2.2,2.376,2.376,0,0,0-1.913-.733,2.679,2.679,0,0,0-1.912.733,3.026,3.026,0,0,0-.718,2.2v6.681h-3.028V7.993h2.949Zm10.76,3.585a3.47,3.47,0,0,1,1.275-2.69,6.077,6.077,0,0,1,6.854,0,3.781,3.781,0,0,1,1.355,2.933h-3.028c-.08-1.059-.718-1.548-1.834-1.548a2.574,2.574,0,0,0-1.354.326,1.17,1.17,0,0,0-.479.978,1.141,1.141,0,0,0,.718.978,11.144,11.144,0,0,0,1.753.57c.638.163,1.355.326,1.993.489a4.519,4.519,0,0,1,1.673,1.06,3.3,3.3,0,0,1-.637,4.725,6.172,6.172,0,0,1-6.854,0,3.733,3.733,0,0,1-1.435-2.933H118.2c.08,1.059.8,1.548,1.913,1.548a2.054,2.054,0,0,0,1.355-.408,1.4,1.4,0,0,0,.558-1.059,1.051,1.051,0,0,0-.717-.978,11.156,11.156,0,0,0-1.754-.57c-.637-.163-1.355-.326-1.992-.489a3.683,3.683,0,0,1-1.674-1.06,2.482,2.482,0,0,1-.717-1.873Zm17.613,8.882a5.7,5.7,0,0,1-4.3-1.712,6.286,6.286,0,0,1-1.674-4.563,6.159,6.159,0,0,1,1.674-4.563,5.693,5.693,0,0,1,4.3-1.71,5.993,5.993,0,0,1,4.384,1.71,6.093,6.093,0,0,1,1.674,4.482,6.277,6.277,0,0,1-.08,1.222h-8.847a2.768,2.768,0,0,0,.877,1.955,2.3,2.3,0,0,0,1.992.734,2.626,2.626,0,0,0,2.391-1.3h3.348a5.479,5.479,0,0,1-1.993,2.852,7.694,7.694,0,0,1-3.746.9Zm1.993-9.208a3.02,3.02,0,0,0-1.993-.733,2.679,2.679,0,0,0-1.912.733,2.628,2.628,0,0,0-.877,1.955h5.738a2.864,2.864,0,0,0-.956-1.955Z" fill="#2b35e0"/>
    </g>
  </g>
</svg>
