<svg xmlns="http://www.w3.org/2000/svg" width="170" height="33.909" viewBox="0 0 170 33.909">
  <g id="Paysense" transform="translate(-0.27 -0.089)">
    <path id="Path_5365" data-name="Path 5365" d="M27.657,13.72A13.694,13.694,0,0,0,.27,13.775v.61L7.686,6.96a9.4,9.4,0,0,1,6.75-2.438A9.259,9.259,0,1,1,5.307,17.1l-3.32,3.325a11.739,11.739,0,0,0,2.1,2.825L13.938,34,23.9,23.25a13.9,13.9,0,0,0,3.763-9.53Z" transform="translate(0 0)" fill="#fff"/>
    <path id="Path_5366" data-name="Path 5366" d="M11.832,15.7A3.752,3.752,0,1,0,9.674,9.109l-.5.5a3.637,3.637,0,0,0-.831,2.715A3.884,3.884,0,0,0,11.832,15.7Z" transform="translate(1.827 1.841)" fill="#fff"/>
    <path id="Path_5367" data-name="Path 5367" d="M9.563,8.942l-.5.5Z" transform="translate(1.995 2.008)" fill="#2b35e0"/>
    <g id="Group_613" data-name="Group 613" transform="translate(40.618 5.287)">
      <path id="Path_5368" data-name="Path 5368" d="M45.382,14.223a4.521,4.521,0,0,1-2.152,1.4,9.06,9.06,0,0,1-3.227.5H36.875v7.5H33.159V4.827H40a7,7,0,0,1,4.986,1.6,5.321,5.321,0,0,1,1.76,3.8,6.372,6.372,0,0,1-1.369,4Zm-8.409-1H40.1a2.9,2.9,0,0,0,2.151-.8,3.092,3.092,0,0,0,0-4,3.372,3.372,0,0,0-2.151-.8H36.973v5.6Zm13.786,8.7a8.273,8.273,0,0,1-1.956-5.6,7.835,7.835,0,0,1,1.956-5.5,6.23,6.23,0,0,1,4.987-2.1,5.018,5.018,0,0,1,4.6,2.6v-2.4h3.715V23.918H60.341v-2.5a5.113,5.113,0,0,1-4.6,2.7,6.317,6.317,0,0,1-4.987-2.2Zm8.312-2.3a5.084,5.084,0,0,0,0-6.5,3.693,3.693,0,0,0-5.378-.1l-.1.1a4.492,4.492,0,0,0-1.173,3.2,4.57,4.57,0,0,0,1.174,3.3,3.581,3.581,0,0,0,5.279.1C59.07,19.72,59.07,19.72,59.07,19.621Zm12.612,3.8-5.67-14.8h4.107l3.715,10.7,3.911-10.7h3.814l-9,22.193H68.652ZM89.869,7.425a2.693,2.693,0,0,0-1.76.6,2.011,2.011,0,0,0-.685,1.6,2.808,2.808,0,0,0,.489,1.6,4.087,4.087,0,0,0,1.369.9,10.169,10.169,0,0,0,1.857.5c.685.2,1.369.4,1.956.6a7.919,7.919,0,0,1,1.857.9,3.965,3.965,0,0,1,1.369,1.5,5.033,5.033,0,0,1,.489,2.4,5.592,5.592,0,0,1-1.76,4,6.788,6.788,0,0,1-4.694,1.7,7.447,7.447,0,0,1-4.791-1.5,5.375,5.375,0,0,1-1.857-4.1h3.911a2.415,2.415,0,0,0,2.737,2.5,2.949,2.949,0,0,0,1.956-.7A2.107,2.107,0,0,0,93,18.12a2.242,2.242,0,0,0-.978-1.8,6.2,6.2,0,0,0-2.346-1,22.087,22.087,0,0,1-2.738-.8,4.36,4.36,0,0,1-2.347-1.6,4.6,4.6,0,0,1-.978-3,5.283,5.283,0,0,1,1.76-4.1,6.891,6.891,0,0,1,4.6-1.5,8.086,8.086,0,0,1,4.6,1.3,5.231,5.231,0,0,1,1.857,4.1H92.411a2.154,2.154,0,0,0-.781-1.7,2.891,2.891,0,0,0-1.76-.6Zm17.11,16.694a6.989,6.989,0,0,1-5.279-2.1,7.712,7.712,0,0,1-2.054-5.6,7.557,7.557,0,0,1,2.054-5.6,6.984,6.984,0,0,1,5.279-2.1,7.352,7.352,0,0,1,5.378,2.1,7.474,7.474,0,0,1,2.052,5.5,7.7,7.7,0,0,1-.1,1.5H103.46a3.391,3.391,0,0,0,1.076,2.4,3.453,3.453,0,0,0,2.347.9,3.221,3.221,0,0,0,2.932-1.6h4.107a6.721,6.721,0,0,1-2.445,3.5,8.827,8.827,0,0,1-4.5,1.1Zm2.445-11.3a3.7,3.7,0,0,0-2.445-.9,3.287,3.287,0,0,0-2.346.9,3.224,3.224,0,0,0-1.076,2.4H110.6A3.514,3.514,0,0,0,109.425,12.823Zm11.146-4v2.2a5,5,0,0,1,4.6-2.5,5.33,5.33,0,0,1,4.107,1.7,6.48,6.48,0,0,1,1.564,4.7v8.8h-3.716v-8.2a3.717,3.717,0,0,0-.88-2.7,2.915,2.915,0,0,0-2.347-.9,3.287,3.287,0,0,0-2.346.9,3.712,3.712,0,0,0-.881,2.7v8.2h-3.715V8.825h3.618Zm13.2,4.4a4.257,4.257,0,0,1,1.564-3.3,7.455,7.455,0,0,1,8.409,0,4.639,4.639,0,0,1,1.662,3.6h-3.715c-.1-1.3-.881-1.9-2.25-1.9a3.157,3.157,0,0,0-1.661.4,1.435,1.435,0,0,0-.588,1.2,1.4,1.4,0,0,0,.881,1.2,13.671,13.671,0,0,0,2.151.7c.783.2,1.662.4,2.445.6a5.544,5.544,0,0,1,2.052,1.3,4.054,4.054,0,0,1-.781,5.8,7.572,7.572,0,0,1-8.409,0,4.58,4.58,0,0,1-1.76-3.6h3.715c.1,1.3.978,1.9,2.347,1.9a2.52,2.52,0,0,0,1.662-.5,1.716,1.716,0,0,0,.685-1.3,1.29,1.29,0,0,0-.88-1.2,13.686,13.686,0,0,0-2.152-.7c-.781-.2-1.662-.4-2.444-.6a4.519,4.519,0,0,1-2.054-1.3,3.045,3.045,0,0,1-.88-2.3Zm21.608,10.9a6.989,6.989,0,0,1-5.279-2.1,7.712,7.712,0,0,1-2.054-5.6,7.556,7.556,0,0,1,2.054-5.6,6.984,6.984,0,0,1,5.279-2.1,7.352,7.352,0,0,1,5.378,2.1,7.475,7.475,0,0,1,2.054,5.5,7.7,7.7,0,0,1-.1,1.5H151.859a3.4,3.4,0,0,0,1.076,2.4,2.817,2.817,0,0,0,2.444.9,3.222,3.222,0,0,0,2.933-1.6h4.107a6.721,6.721,0,0,1-2.445,3.5,9.44,9.44,0,0,1-4.6,1.1Zm2.445-11.3a3.7,3.7,0,0,0-2.445-.9,3.287,3.287,0,0,0-2.346.9,3.224,3.224,0,0,0-1.076,2.4H159a3.514,3.514,0,0,0-1.173-2.4Z" transform="translate(-33.159 -4.326)" fill="#fff"/>
    </g>
  </g>
</svg>
