<svg xmlns="http://www.w3.org/2000/svg" width="34" height="34" viewBox="0 0 34 34">
  <g id="phone-call" transform="translate(0 0)">
    <g id="Group_230" data-name="Group 230" transform="translate(0 0)">
      <path id="Path_5198" data-name="Path 5198" d="M29.019,4.977A17,17,0,1,0,34,17,17,17,0,0,0,29.019,4.977Zm-3.273,18.7,0,0v-.006l-.861.856A4.533,4.533,0,0,1,20.6,25.757,15.063,15.063,0,0,1,16.229,23.8a20.212,20.212,0,0,1-3.451-2.782A20.368,20.368,0,0,1,10.2,17.886a15.865,15.865,0,0,1-1.938-3.921,4.533,4.533,0,0,1,1.133-4.63L10.4,8.326a.72.72,0,0,1,1.018,0l0,0,3.185,3.185a.72.72,0,0,1,0,1.018l0,0-1.87,1.87a1.524,1.524,0,0,0-.159,1.983A21.87,21.87,0,0,0,14.818,19a21.736,21.736,0,0,0,2.947,2.476,1.536,1.536,0,0,0,1.961-.17l1.808-1.836a.72.72,0,0,1,1.018,0l0,0,3.19,3.2A.719.719,0,0,1,25.746,23.68Z" transform="translate(0 0)" fill="#bcbcbc"/>
    </g>
  </g>
</svg>
