<svg id="Group_230" data-name="Group 230" xmlns="http://www.w3.org/2000/svg" width="18" height="18" viewBox="0 0 18 18">
  <path id="Path_5198" data-name="Path 5198" d="M15.363,2.635A9,9,0,1,0,18,9,9,9,0,0,0,15.363,2.635Zm-1.733,9.9h0v0l-.456.453a2.4,2.4,0,0,1-2.265.648A7.975,7.975,0,0,1,8.592,12.6a10.7,10.7,0,0,1-1.827-1.473A10.783,10.783,0,0,1,5.4,9.469,8.4,8.4,0,0,1,4.374,7.393a2.4,2.4,0,0,1,.6-2.451l.534-.534a.381.381,0,0,1,.539,0h0L7.734,6.094a.381.381,0,0,1,0,.539h0l-.99.99a.807.807,0,0,0-.084,1.05,11.578,11.578,0,0,0,1.185,1.383A11.507,11.507,0,0,0,9.4,11.368a.813.813,0,0,0,1.038-.09l.957-.972a.381.381,0,0,1,.539,0h0L13.629,12A.381.381,0,0,1,13.63,12.537Z" transform="translate(0 0)" fill="#1cb980"/>
</svg>
