<svg id="Group_526" data-name="Group 526" xmlns="http://www.w3.org/2000/svg" xmlns:xlink="http://www.w3.org/1999/xlink" width="37.862" height="30.073" viewBox="0 0 37.862 30.073">
  <defs>
    <clipPath id="clip-path">
      <rect id="Rectangle_621" data-name="Rectangle 621" width="37.862" height="30.073" fill="none"/>
    </clipPath>
    <clipPath id="clip-path-2">
      <rect id="Rectangle_620" data-name="Rectangle 620" width="37.862" height="30.073" transform="translate(0 0)" fill="none"/>
    </clipPath>
    <clipPath id="clip-path-3">
      <rect id="Rectangle_616" data-name="Rectangle 616" width="31.952" height="1.951" transform="translate(3.077 25.037)" fill="#72cc87"/>
    </clipPath>
    <clipPath id="clip-path-4">
      <rect id="Rectangle_619" data-name="Rectangle 619" width="18.959" height="6.407" transform="translate(9.562 6.94)" fill="none"/>
    </clipPath>
  </defs>
  <g id="Group_514" data-name="Group 514" clip-path="url(#clip-path)">
    <g id="Group_513" data-name="Group 513">
      <g id="Group_512" data-name="Group 512" clip-path="url(#clip-path-2)">
        <g id="Group_508" data-name="Group 508" opacity="0.27">
          <g id="Group_507" data-name="Group 507">
            <g id="Mask_Group_506" data-name="Mask Group 506" clip-path="url(#clip-path-3)">
              <rect id="Rectangle_615" data-name="Rectangle 615" width="31.952" height="1.951" transform="translate(3.077 25.037)" fill="#72cc87"/>
            </g>
          </g>
        </g>
        <path id="Rectangle_617" data-name="Rectangle 617" d="M1.19,0H9.316a1.191,1.191,0,0,1,1.191,1.191v.2A1.191,1.191,0,0,1,9.316,2.585H1.19A1.19,1.19,0,0,1,0,1.4V1.19A1.19,1.19,0,0,1,1.19,0Z" transform="translate(2.021 26.988)" fill="none" stroke="#72cc87" stroke-linecap="round" stroke-miterlimit="10" stroke-width="1"/>
        <path id="Rectangle_618" data-name="Rectangle 618" d="M1.19,0H9.316a1.191,1.191,0,0,1,1.191,1.191v.2A1.191,1.191,0,0,1,9.316,2.585H1.19A1.19,1.19,0,0,1,0,1.4V1.19A1.19,1.19,0,0,1,1.19,0Z" transform="translate(25.376 26.988)" fill="none" stroke="#72cc87" stroke-linecap="round" stroke-miterlimit="10" stroke-width="1"/>
        <path id="Path_5304" data-name="Path 5304" d="M35.029,26.988H3.055A2.084,2.084,0,0,1,.971,24.9V21.688A5.969,5.969,0,0,1,6.94,15.719H31.174a5.939,5.939,0,0,1,5.939,5.939V24.9A2.084,2.084,0,0,1,35.029,26.988Z" fill="none" stroke="#72cc87" stroke-linecap="round" stroke-miterlimit="10" stroke-width="1.5"/>
        <path id="Path_5305" data-name="Path 5305" d="M10.979,21.266a5.45,5.45,0,0,0-2.006-2.608c-1.394-.935-3.417-1.244-3.762-.652-.316.539.741,1.859,1.8,2.558A5.561,5.561,0,0,0,10.979,21.266Z" fill="none" stroke="#72cc87" stroke-linecap="round" stroke-miterlimit="10" stroke-width="1"/>
        <path id="Path_5306" data-name="Path 5306" d="M26.476,21.266a5.45,5.45,0,0,1,2.006-2.608c1.394-.935,3.417-1.244,3.762-.652.316.539-.741,1.859-1.805,2.558A5.561,5.561,0,0,1,26.476,21.266Z" fill="none" stroke="#72cc87" stroke-linecap="round" stroke-miterlimit="10" stroke-width="1"/>
        <path id="Path_5307" data-name="Path 5307" d="M12.529,17.7A12.525,12.525,0,0,1,15.8,22.039" fill="none" stroke="#72cc87" stroke-linecap="round" stroke-miterlimit="10" stroke-width="1"/>
        <g id="Group_511" data-name="Group 511" opacity="0.27">
          <g id="Group_510" data-name="Group 510">
            <g id="Group_509" data-name="Group 509" clip-path="url(#clip-path-4)">
              <path id="Path_5308" data-name="Path 5308" d="M9.562,13.347a8.148,8.148,0,0,1,2.617-4.64c2.093-1.77,4.541-1.768,6.648-1.767,2.037,0,4.741,0,7.025,1.959a8.6,8.6,0,0,1,2.669,4.448Z" fill="#72cc87"/>
            </g>
          </g>
        </g>
        <path id="Path_5309" data-name="Path 5309" d="M24.959,17.7a12.525,12.525,0,0,0-3.269,4.336" fill="none" stroke="#72cc87" stroke-linecap="round" stroke-miterlimit="10" stroke-width="1"/>
        <path id="Path_5310" data-name="Path 5310" d="M11.782,6.026a11.31,11.31,0,0,1,5.537-1.487h3.409a11.04,11.04,0,0,1,11.04,11.04.17.17,0,0,1-.17.17H6.448a.169.169,0,0,1-.169-.17,11.017,11.017,0,0,1,.5-3.282c.08-.259.2-.612.373-1.019" fill="none" stroke="#72cc87" stroke-linecap="round" stroke-miterlimit="10" stroke-width="1.5"/>
        <circle id="Ellipse_299" data-name="Ellipse 299" cx="5.279" cy="5.279" r="5.279" transform="translate(1 1)" fill="none" stroke="#72cc87" stroke-miterlimit="10" stroke-width="2"/>
        <path id="Path_5311" data-name="Path 5311" d="M6.42,9.183,4.314,6.549l.013-.523c.988.069,1.756-.036,1.935-.971L4.156,5.043l.341-.57,1.68.024c-.256-.532-.96-.6-2.057-.559L4.5,3.38l3.566-.006-.353.552H6.724a1.008,1.008,0,0,1,.317.595l1.022-.012-.353.546-.681.012a1.822,1.822,0,0,1-1.8,1.409l2.12,2.706Z" fill="#72cc87"/>
      </g>
    </g>
  </g>
</svg>
