<svg id="Group_518" data-name="Group 518" xmlns="http://www.w3.org/2000/svg" xmlns:xlink="http://www.w3.org/1999/xlink" width="36.447" height="33.21" viewBox="0 0 36.447 33.21">
  <defs>
    <clipPath id="clip-path">
      <rect id="Rectangle_596" data-name="Rectangle 596" width="36.447" height="33.21" fill="none"/>
    </clipPath>
    <clipPath id="clip-path-2">
      <rect id="Rectangle_594" data-name="Rectangle 594" width="36.447" height="33.21" transform="translate(0 0)" fill="none"/>
    </clipPath>
    <clipPath id="clip-path-3">
      <rect id="Rectangle_593" data-name="Rectangle 593" width="28.533" height="1.613" transform="translate(0.949 7.19)" fill="none"/>
    </clipPath>
  </defs>
  <g id="Group_467" data-name="Group 467" clip-path="url(#clip-path)">
    <g id="Group_464" data-name="Group 464">
      <g id="Group_463" data-name="Group 463" clip-path="url(#clip-path-2)">
        <g id="Group_462" data-name="Group 462" opacity="0.27">
          <g id="Group_461" data-name="Group 461">
            <g id="Group_460" data-name="Group 460" clip-path="url(#clip-path-3)">
              <path id="Path_5280" data-name="Path 5280" d="M3.672,7.19H26.759c1.5,0,2.723.363,2.723.806s-1.225.807-2.723.807H3.672C2.174,8.8.949,8.44.949,8S2.174,7.19,3.672,7.19" fill="#374d9c"/>
            </g>
          </g>
        </g>
      </g>
    </g>
    <path id="Path_5281" data-name="Path 5281" d="M9.922,14.371h0Z" fill="#f57a3d"/>
    <g id="Group_466" data-name="Group 466">
      <g id="Group_465" data-name="Group 465" clip-path="url(#clip-path-2)">
        <path id="Path_5282" data-name="Path 5282" d="M2.572,14.1Z" fill="#f57a3d"/>
        <path id="Path_5283" data-name="Path 5283" d="M27.31,7.692a1.1,1.1,0,0,1,.406.323,1.232,1.232,0,0,1,.221.787c0,.249,0,.591,0,1.011l.034,3.549,2.164.422c.022-1.119.072-4.09,0-5.627a2.549,2.549,0,0,0-.082-.553,3.152,3.152,0,0,0-3.021-2.217c-1.163-.007-2.325-.005-3.485,0l-1.509,0c-.336,0-.558,0-.731-.181s-.162-.405-.149-.718a.773.773,0,0,1,.252-.547.964.964,0,0,0,.334-.745l-.012-.225a5.027,5.027,0,0,0-.044-.53A3.117,3.117,0,0,0,18.95,0H11.277A2.86,2.86,0,0,0,8.972,1.317a2.988,2.988,0,0,0-.531,1.539,1.016,1.016,0,0,0,.306.982.8.8,0,0,1,.189.269,1.267,1.267,0,0,1,.044.975c-.133.381-.549.328-.7.31a.854.854,0,0,0-.1-.01h0c-1.622.005-3.246.01-4.869,0H3.286a3.85,3.85,0,0,0-1.268.223A3.164,3.164,0,0,0,0,8.435v4.158q0,5.718,0,11.435a2.98,2.98,0,0,0,1,2.156,3.237,3.237,0,0,0,2.347.875q4.938.006,9.874,0h3.558c-.082-.315-.234-.927-.533-2.159L3.162,24.8a1.306,1.306,0,0,1-.848-.621.659.659,0,0,1-.117-.471c0-2.4,0-4.761,0-7.12a.673.673,0,0,1,.165-.57l.072-.074a.64.64,0,0,1,.528-.166c2.318,0,4.594,0,6.871,0a.6.6,0,0,1,.6.238l.063.094.008,1.454a1.49,1.49,0,0,0,1.031,1.237c1.142.071,2.358.062,3.533.052.712,0,1.425-.01,2.136,0a1.993,1.993,0,0,0,.329-.021q.246-.434.521-.837a1.01,1.01,0,0,1-.259.033H12.317a1.022,1.022,0,0,1,0-2.043H17.8a1.022,1.022,0,0,1,1.021,1.016,10.941,10.941,0,0,1,1.914-1.749,9.541,9.541,0,0,1,.814-.518l-1.087,0a.706.706,0,0,1-.59-.157l-.152-.151-.027-.1a3.3,3.3,0,0,1-.069-1.018,4.727,4.727,0,0,0,0-.476,1.477,1.477,0,0,0-1.435-1.176h-1.37q-2.4,0-4.8,0a1.536,1.536,0,0,0-1.276.687A1.789,1.789,0,0,0,10.5,13.5c0,.063.005.126.01.188a1.379,1.379,0,0,1-.111.792l-.068.092a.644.644,0,0,1-.525.166l-6.8,0a.67.67,0,0,1-.57-.164L2.364,14.5A.6.6,0,0,1,2.2,14V8.744a.672.672,0,0,1,.113-.48,1.239,1.239,0,0,1,.574-.57.7.7,0,0,1,.488-.113c7.833,0,15.617,0,23.4,0a.761.761,0,0,1,.535.108M12.317,12.319H17.8a1.021,1.021,0,0,1,0,2.042H12.317a1.021,1.021,0,1,1,0-2.042m7.8-7.541a1.336,1.336,0,0,0-.01.14V5.09l-.16.2a.473.473,0,0,1-.317.111.933.933,0,0,1-.139-.012H14.129c-1.116,0-2.238,0-3.357,0-.565.083-.7-.238-.727-.38a.924.924,0,0,1,.176-.95,1.27,1.27,0,0,0,.456-.924A.968.968,0,0,1,11.743,2.2H18.4a.979.979,0,0,1,1.08.961.965.965,0,0,0,.312.689.932.932,0,0,1,.328.924" fill="#5b70d3"/>
        <circle id="Ellipse_296" data-name="Ellipse 296" cx="7.912" cy="7.912" r="7.912" transform="translate(19.471 16.234)" fill="none" stroke="#5b70d3" stroke-miterlimit="10" stroke-width="2.303"/>
        <path id="Path_5284" data-name="Path 5284" d="M27.85,28.277l-3-3.747.018-.742c1.405.1,2.5-.052,2.752-1.382l-3-.017.485-.812,2.389.035c-.364-.757-1.365-.85-2.926-.794l.537-.8,5.072-.008-.5.785h-1.4a1.436,1.436,0,0,1,.45.846l1.454-.017-.5.777-.969.017c-.152,1.159-1.217,1.846-2.562,2l3.014,3.85Z" fill="#5b70d3"/>
      </g>
    </g>
  </g>
</svg>
