<svg xmlns="http://www.w3.org/2000/svg" xmlns:xlink="http://www.w3.org/1999/xlink" width="24.27" height="25.702" viewBox="0 0 24.27 25.702">
  <defs>
    <clipPath id="clip-path">
      <rect id="Rectangle_657" data-name="Rectangle 657" width="5.864" height="9.574" fill="#ed8750"/>
    </clipPath>
    <clipPath id="clip-path-2">
      <rect id="Rectangle_658" data-name="Rectangle 658" width="5.756" height="9.583" fill="none"/>
    </clipPath>
  </defs>
  <g id="Group_576" data-name="Group 576" transform="translate(-11504.865 -5856.178)">
    <g id="Group_571" data-name="Group 571" transform="translate(11521.905 5864.242)" opacity="0.27">
      <g id="Group_570" data-name="Group 570">
        <g id="Group_569" data-name="Group 569" clip-path="url(#clip-path)">
          <path id="Path_5355" data-name="Path 5355" d="M22.946,10.9c1.833,0,3.563,0,5.292,0,.328,0,.476.136.475.5-.013,2.833-.009,5.666,0,8.5,0,.309-.064.569-.426.571-1.762.009-3.525,0-5.433,0a6.489,6.489,0,0,0,2.176-4.738A6.837,6.837,0,0,0,22.946,10.9" transform="translate(-22.85 -10.9)" fill="#ed8750"/>
        </g>
      </g>
    </g>
    <g id="Group_574" data-name="Group 574" transform="translate(11507.899 5864.237)" opacity="0.27">
      <g id="Group_573" data-name="Group 573">
        <g id="Group_572" data-name="Group 572" clip-path="url(#clip-path-2)">
          <path id="Path_5356" data-name="Path 5356" d="M9.668,10.9a6.584,6.584,0,0,0,.007,9.574H8.513c-1.305,0-2.61-.013-3.915.007-.473.007-.681-.141-.678-.646.016-2.764.01-5.529,0-8.293,0-.371.058-.646.514-.644,1.715,0,3.43,0,5.231,0" transform="translate(-3.919 -10.893)" fill="#ed8750"/>
        </g>
      </g>
    </g>
    <path id="Path_5357" data-name="Path 5357" d="M8.689,5.063c-.26-.234-.015-.885.115-1.221a6.653,6.653,0,0,1,1.717-2.5A5.792,5.792,0,0,1,13.168.1a5.913,5.913,0,0,1,2.589.1,5.736,5.736,0,0,1,.976.365,7.643,7.643,0,0,1,2.405,1.782l.771-.876q.291,1.1.577,2.2.119.454.235.908c.022.05.055.144,0,.2s-.185.033-.221.027c-.24-.041-1.526-.137-3.442-.269L18.13,3.277a3.219,3.219,0,0,0-.38-.927A4.456,4.456,0,0,0,13.506.561,5.2,5.2,0,0,0,10.02,2.734a5.758,5.758,0,0,0-1.04,2.416.411.411,0,0,1-.291-.086" transform="translate(11502.77 5856.178)" fill="#ed8750"/>
    <path id="Path_5358" data-name="Path 5358" d="M8.689,27.866c-.26.234-.015.885.115,1.221a6.653,6.653,0,0,0,1.717,2.5,5.792,5.792,0,0,0,2.647,1.247,5.913,5.913,0,0,0,2.589-.1,5.737,5.737,0,0,0,.976-.365,7.643,7.643,0,0,0,2.405-1.782l.771.876q.291-1.1.577-2.2.119-.454.235-.908c.022-.05.055-.144,0-.2s-.185-.033-.221-.027c-.24.041-1.526.137-3.442.269l1.068,1.255a3.219,3.219,0,0,1-.38.927,4.456,4.456,0,0,1-4.244,1.789A5.2,5.2,0,0,1,10.02,30.2a5.758,5.758,0,0,1-1.04-2.416.411.411,0,0,0-.291.086" transform="translate(11502.77 5848.95)" fill="#ed8750"/>
    <path id="Path_5359" data-name="Path 5359" d="M21.991,10.908c1.833,0,3.563,0,5.292,0,.328,0,.476.136.475.5-.013,2.833-.009,5.666,0,8.5,0,.309-.064.569-.426.571-1.762.009-3.525,0-5.433,0a6.489,6.489,0,0,0,2.176-4.738,6.837,6.837,0,0,0-2.079-4.834" transform="translate(11499.304 5853.34)" fill="#ed8750"/>
    <path id="Path_5360" data-name="Path 5360" d="M8.393,10.905A6.585,6.585,0,0,0,8.4,20.48H7.238c-1.305,0-2.61-.013-3.915.007-.473.007-.681-.141-.678-.646.016-2.764.01-5.529,0-8.293,0-.371.058-.646.514-.644,1.715,0,3.43,0,5.231,0" transform="translate(11504.313 5853.341)" fill="#ed8750"/>
    <path id="Path_5361" data-name="Path 5361" d="M15.756,14.16c-1.136,0-2.27-.015-3.4.008-.377.007-.617-.113-.63-.486-.014-.414.268-.54.644-.538,1.026.006,2.052,0,3.148,0a1.307,1.307,0,0,0-1.2-.522c-.652-.029-1.306-.014-1.958-.005-.357,0-.626-.119-.636-.5-.01-.4.223-.538.632-.533q2.706.03,5.412,0a.64.64,0,0,1,.505.161.525.525,0,0,1,.112.338c0,.048-.013.324-.176.415-.134.074-.127.073-.439.079-.078,0-.317-.007-.55-.014l-.107,0c-.073,0-.174,0-.32.005-.091,0-.149.008-.188.052s-.031.121-.022.283c.007.135.02.17.047.2a.186.186,0,0,0,.132.044c.255,0,.716,0,1.013,0,.355,0,.619.138.612.519a.52.52,0,0,1-.148.391c-.106.1-.253.1-.466.106-.063,0-.1,0-.155,0a1.749,1.749,0,0,0-.7.038c-.209.108-.155.425-.214.628-.28.982-1.756,1.444-1.952,1.5a3.57,3.57,0,0,1-1.212.135c.614.586,1.23,1.168,1.84,1.757.322.31.647.619.943.952.212.238.354.5.04.8s-.579.162-.8-.06c-1.237-1.217-2.456-2.452-3.689-3.673a.47.47,0,0,1-.124-.559.662.662,0,0,1,.629-.368c.687-.005,1.375.005,2.062,0a1.2,1.2,0,0,0,1.319-1.147" transform="translate(11501.956 5853.163)" fill="#ed8750"/>
    <rect id="Rectangle_659" data-name="Rectangle 659" width="23.233" height="12.61" rx="0.75" transform="translate(11505.384 5862.724)" fill="none" stroke="#ed8750" stroke-width="1.037"/>
    <rect id="Rectangle_660" data-name="Rectangle 660" width="24" height="25.702" transform="translate(11505 5856.178)" fill="none"/>
    <rect id="Rectangle_661" data-name="Rectangle 661" width="24" height="25.702" transform="translate(11505 5856.178)" fill="none"/>
  </g>
</svg>
