<svg id="Group_525" data-name="Group 525" xmlns="http://www.w3.org/2000/svg" xmlns:xlink="http://www.w3.org/1999/xlink" width="36" height="33.569" viewBox="0 0 36 33.569">
  <defs>
    <clipPath id="clip-path">
      <rect id="Rectangle_609" data-name="Rectangle 609" width="36" height="33.569" fill="none"/>
    </clipPath>
    <clipPath id="clip-path-3">
      <rect id="Rectangle_607" data-name="Rectangle 607" width="6.953" height="9.081" fill="#64c7c7"/>
    </clipPath>
  </defs>
  <g id="Group_494" data-name="Group 494" clip-path="url(#clip-path)">
    <g id="Group_493" data-name="Group 493" transform="translate(0 0)">
      <g id="Group_492" data-name="Group 492" clip-path="url(#clip-path)">
        <g id="Group_491" data-name="Group 491" transform="translate(14.642 12.804)" opacity="0.27">
          <g id="Group_490" data-name="Group 490">
            <g id="Group_489" data-name="Group 489" clip-path="url(#clip-path-3)">
              <rect id="Rectangle_606" data-name="Rectangle 606" width="6.954" height="9.081" transform="translate(0 0.001)" fill="#64c7c7"/>
            </g>
          </g>
        </g>
        <path id="Path_5294" data-name="Path 5294" d="M7.847,24.9q.083-4.215.165-8.429l-6.03.123,5.943-5.417q.008-4.059.015-8.118l4.02,0-.1,3.6,5.929-5.612L33.772,16.819l-5.106-.006q.043,3.06.087,6.119" transform="translate(0.207 0.109)" fill="none" stroke="#64c7c7" stroke-linecap="round" stroke-miterlimit="10" stroke-width="1.5"/>
        <path id="Path_5295" data-name="Path 5295" d="M13.422,11.368h5.7a.794.794,0,0,1,.794.785L20.011,20" transform="translate(1.402 1.187)" fill="none" stroke="#64c7c7" stroke-linecap="round" stroke-miterlimit="10" stroke-width="1.407"/>
        <path id="Path_5296" data-name="Path 5296" d="M13.263,13.716l.083,6.042" transform="translate(1.385 1.433)" fill="none" stroke="#64c7c7" stroke-linecap="round" stroke-miterlimit="10" stroke-width="1.448"/>
        <circle id="Ellipse_298" data-name="Ellipse 298" cx="5.83" cy="5.83" r="5.83" transform="translate(18.38 20.804)" fill="none" stroke="#64c7c7" stroke-miterlimit="10" stroke-width="2"/>
        <path id="Path_5297" data-name="Path 5297" d="M22.5,27.7l-2.375-2.971.013-.589c1.114.076,1.981-.042,2.182-1.1l-2.375-.014.384-.643,1.894.027c-.288-.6-1.082-.674-2.319-.63l.425-.63,4.022-.007-.4.623H22.845a1.131,1.131,0,0,1,.357.67l1.153-.013-.4.616-.769.013a2.053,2.053,0,0,1-2.032,1.588L23.547,27.7Z" transform="translate(2.079 2.209)" fill="#64c7c7"/>
      </g>
    </g>
  </g>
</svg>
