<svg xmlns="http://www.w3.org/2000/svg" width="43.406" height="51.835" viewBox="0 0 43.406 51.835">
  <g id="Group_359" data-name="Group 359" transform="translate(399.484 -7.232)">
    <path id="Path_5259" data-name="Path 5259" d="M-395.919,51.624l7.421-7.966,16.26.217c6.981-6.612,12.045-11.583,13.751-13.314A4,4,0,0,0-357.1,27.71a3.092,3.092,0,0,0-.7-1.724l-16.246,15.267h-16.409l-7.864,8.289Z" transform="translate(0 6.651)" fill="#374d9c" opacity="0.27"/>
    <rect id="Rectangle_585" data-name="Rectangle 585" width="8.66" height="11.31" transform="translate(-381.992 22.786)" fill="#374d9c" opacity="0.27"/>
    <path id="Path_5260" data-name="Path 5260" d="M-390.42,37.982q.1-5.249.2-10.5l-7.51.154,7.4-6.747q.01-5.055.019-10.11l5.007,0-.128,4.479,7.384-6.988,19.912,19.646-6.36-.006q.054,3.809.109,7.62" transform="translate(0.222)" fill="none" stroke="#f57a3d" stroke-linecap="round" stroke-miterlimit="10" stroke-width="1.5"/>
    <path id="Path_5261" data-name="Path 5261" d="M-386.284,18.6h7.1a.989.989,0,0,1,.989.977l.114,9.779" transform="translate(4.519 3.877)" fill="none" stroke="#f57a3d" stroke-linecap="round" stroke-miterlimit="10" stroke-width="1.407"/>
    <path id="Path_5262" data-name="Path 5262" d="M-386.443,20.948l.1,7.525" transform="translate(4.459 4.759)" fill="none" stroke="#f57a3d" stroke-linecap="round" stroke-miterlimit="10" stroke-width="1.448"/>
    <path id="Path_5263" data-name="Path 5263" d="M-397.382,37.721l9.058-8.84h16.7a2.68,2.68,0,0,1,2.838,2.293,2.679,2.679,0,0,1-2.176,2.979l-9.611.294" transform="translate(0.351 7.735)" fill="none" stroke="#374d9c" stroke-linecap="round" stroke-miterlimit="10" stroke-width="1.5"/>
    <path id="Path_5264" data-name="Path 5264" d="M-396.668,51.537l7.421-7.967,16.26.219c6.981-6.613,12.047-11.585,13.751-13.315a4.041,4.041,0,0,0,1.392-2.853,2.348,2.348,0,0,0-.825-1.715,2.619,2.619,0,0,0-3.038.187l-7.341,6.96" transform="translate(0.619 6.47)" fill="none" stroke="#374d9c" stroke-linecap="round" stroke-miterlimit="10" stroke-width="1.5"/>
  </g>
</svg>
