<svg id="Group_527" data-name="Group 527" xmlns="http://www.w3.org/2000/svg" xmlns:xlink="http://www.w3.org/1999/xlink" width="36" height="41.911" viewBox="0 0 36 41.911">
  <defs>
    <clipPath id="clip-path">
      <rect id="Rectangle_632" data-name="Rectangle 632" width="36" height="41.911" fill="none"/>
    </clipPath>
    <clipPath id="clip-path-3">
      <rect id="Rectangle_628" data-name="Rectangle 628" width="33.1" height="20.585" fill="none"/>
    </clipPath>
    <clipPath id="clip-path-4">
      <rect id="Rectangle_630" data-name="Rectangle 630" width="6.953" height="9.081" fill="none"/>
    </clipPath>
  </defs>
  <g id="Group_526" data-name="Group 526" clip-path="url(#clip-path)">
    <g id="Group_525" data-name="Group 525" transform="translate(0 0)">
      <g id="Group_524" data-name="Group 524" clip-path="url(#clip-path)">
        <g id="Group_520" data-name="Group 520" transform="translate(1.533 20.713)" opacity="0.27">
          <g id="Group_519" data-name="Group 519">
            <g id="Group_518" data-name="Group 518" clip-path="url(#clip-path-3)">
              <path id="Path_5313" data-name="Path 5313" d="M3.314,39.34l5.958-6.4,13.055.176c5.6-5.309,9.673-9.3,11.041-10.69a3.217,3.217,0,0,0,1.117-2.291,2.478,2.478,0,0,0-.563-1.384L20.878,31.013H7.7Q4.545,34.34,1.389,37.668L3.314,39.34" transform="translate(-1.388 -18.755)" fill="#c87792"/>
            </g>
          </g>
        </g>
        <g id="Group_523" data-name="Group 523" transform="translate(14.642 12.804)" opacity="0.27">
          <g id="Group_522" data-name="Group 522">
            <g id="Group_521" data-name="Group 521" clip-path="url(#clip-path-4)">
              <rect id="Rectangle_629" data-name="Rectangle 629" width="6.953" height="9.081" transform="translate(0 0.001)" fill="#c87792"/>
            </g>
          </g>
        </g>
        <path id="Path_5314" data-name="Path 5314" d="M7.847,24.9q.083-4.214.165-8.429l-6.03.123,5.943-5.417q.008-4.059.015-8.118l4.02,0-.1,3.6,5.929-5.612L33.772,16.819l-5.106-.006q.043,3.06.087,6.119" transform="translate(0.207 0.109)" fill="none" stroke="#c87792" stroke-linecap="round" stroke-miterlimit="10" stroke-width="1.5"/>
        <path id="Path_5315" data-name="Path 5315" d="M13.422,11.368h5.7a.794.794,0,0,1,.794.785L20.011,20" transform="translate(1.402 1.187)" fill="none" stroke="#c87792" stroke-linecap="round" stroke-miterlimit="10" stroke-width="1.5"/>
        <path id="Path_5316" data-name="Path 5316" d="M13.263,13.716l.083,6.042" transform="translate(1.385 1.432)" fill="none" stroke="#c87792" stroke-linecap="round" stroke-miterlimit="10" stroke-width="1.5"/>
        <path id="Path_5317" data-name="Path 5317" d="M2.324,28.746l7.273-7.1H23a2.135,2.135,0,0,1,.531,4.232l-7.717.236" transform="translate(0.243 2.26)" fill="none" stroke="#c87792" stroke-linecap="round" stroke-miterlimit="10" stroke-width="1.5"/>
        <path id="Path_5318" data-name="Path 5318" d="M3.038,39.174,9,32.778l13.055.176c5.6-5.309,9.673-9.3,11.041-10.69a3.245,3.245,0,0,0,1.117-2.291,1.883,1.883,0,0,0-.662-1.378,2.1,2.1,0,0,0-2.44.15l-5.894,5.59" transform="translate(0.317 1.908)" fill="none" stroke="#c87792" stroke-linecap="round" stroke-miterlimit="10" stroke-width="1.5"/>
      </g>
    </g>
  </g>
</svg>
