<svg xmlns="http://www.w3.org/2000/svg" xmlns:xlink="http://www.w3.org/1999/xlink" width="36.446" height="39.117" viewBox="0 0 36.446 39.117">
  <defs>
    <clipPath id="clip-path">
      <rect id="Rectangle_630" data-name="Rectangle 630" width="36.446" height="39.117" fill="none"/>
    </clipPath>
    <clipPath id="clip-path-2">
      <rect id="Rectangle_629" data-name="Rectangle 629" width="36.446" height="39.116" fill="none"/>
    </clipPath>
    <clipPath id="clip-path-3">
      <rect id="Rectangle_628" data-name="Rectangle 628" width="35.883" height="22.316" fill="#8669d9"/>
    </clipPath>
  </defs>
  <g id="Group_524" data-name="Group 524" clip-path="url(#clip-path)">
    <g id="Group_523" data-name="Group 523" transform="translate(0 0)">
      <g id="Group_522" data-name="Group 522" clip-path="url(#clip-path-2)">
        <g id="Group_521" data-name="Group 521" transform="translate(0.292 15.902)" opacity="0.27">
          <g id="Group_520" data-name="Group 520">
            <g id="Group_519" data-name="Group 519" clip-path="url(#clip-path-3)">
              <path id="Path_5313" data-name="Path 5313" d="M2.332,35.6l6.459-6.935,14.153.19C29.02,23.1,33.43,18.77,34.913,17.265a3.488,3.488,0,0,0,1.21-2.483,2.687,2.687,0,0,0-.611-1.5L21.372,26.571H7.09Q3.667,30.177.245,33.785L2.332,35.6" transform="translate(-0.244 -13.282)" fill="#8669d9"/>
            </g>
          </g>
        </g>
        <path id="Path_5314" data-name="Path 5314" d="M.75,24.067l7.884-7.694H23.168a2.315,2.315,0,0,1,.576,4.588l-8.365.256" transform="translate(0.148 3.228)" fill="none" stroke="#8669d9" stroke-linecap="round" stroke-miterlimit="10" stroke-width="1.5"/>
        <path id="Path_5315" data-name="Path 5315" d="M1.464,35.655,7.923,28.72l14.153.19c6.076-5.755,10.486-10.083,11.969-11.588a3.518,3.518,0,0,0,1.21-2.483,2.041,2.041,0,0,0-.717-1.494,2.281,2.281,0,0,0-2.645.163L25.5,19.567" transform="translate(0.289 2.563)" fill="none" stroke="#8669d9" stroke-linecap="round" stroke-miterlimit="10" stroke-width="1.5"/>
        <ellipse id="Ellipse_296" data-name="Ellipse 296" cx="7.773" cy="7.396" rx="7.773" ry="7.396" transform="translate(10.878 1.196)" fill="none" stroke="#8669d9" stroke-miterlimit="10" stroke-width="2"/>
        <path id="Path_5316" data-name="Path 5316" d="M16.534,12.126,13.453,8.272l.018-.764c1.446.1,2.569-.054,2.832-1.421L13.222,6.07l.5-.836,2.458.036c-.375-.778-1.4-.874-3.01-.818l.552-.817,5.218-.008-.517.807H16.979a1.484,1.484,0,0,1,.463.87l1.5-.017-.517.8-1,.018C17.269,7.3,16.173,8,14.789,8.166l3.1,3.959Z" transform="translate(2.598 0.715)" fill="#8669d9"/>
      </g>
    </g>
  </g>
</svg>
