<?xml version="1.0" encoding="UTF-8"?>
<svg width="661px" height="169px" viewBox="0 0 661 169" version="1.1" xmlns="http://www.w3.org/2000/svg" xmlns:xlink="http://www.w3.org/1999/xlink">
    <!-- Generator: Sketch 48.2 (47327) - http://www.bohemiancoding.com/sketch -->
    <title>Colour_FullLogoSVG</title>
    <desc>Created with Sketch.</desc>
    <defs></defs>
    <g id="Logo" stroke="none" stroke-width="1" fill="none" fill-rule="evenodd">
        <g id="Colour_FullLogo">
            <g id="Group-21">
                <g id="Group-18" transform="translate(217.000000, 0.000000)">
                    <path d="M41.283745,1.20705676 L58.2206661,106.824523 L41.4349675,106.824523 L38.5617399,87.6624972 L18.1467011,87.6624972 L15.2734734,106.824523 L0,106.824523 L16.936921,1.20705676 L41.283745,1.20705676 Z M28.2786092,19.9164365 L20.2638162,73.3286981 L36.2934022,73.3286981 L28.2786092,19.9164365 Z M107.771242,16.2952663 L107.771242,48.1313883 L129.244838,48.1313883 L129.244838,63.2195978 L107.771242,63.2195978 L107.771242,106.824523 L91.1367656,106.824523 L91.1367656,1.20705676 L135.142516,1.20705676 L135.142516,16.2952663 L107.771242,16.2952663 Z M168.36106,106.824523 L168.36106,1.20705676 L184.995536,1.20705676 L184.995536,106.824523 L168.36106,106.824523 Z M257.834378,106.824523 L237.116894,30.3273011 L237.116894,106.824523 L222.145866,106.824523 L222.145866,1.20705676 L243.014572,1.20705676 L260.102716,64.4266545 L260.102716,1.20705676 L274.922522,1.20705676 L274.922522,106.824523 L257.834378,106.824523 Z M310.711849,81.4763313 L310.711849,26.5552487 C310.711849,9.50557198 319.633977,0 335.966008,0 C352.298039,0 361.220167,9.50557198 361.220167,26.5552487 L361.220167,81.4763313 C361.220167,98.526008 352.298039,108.03158 335.966008,108.03158 C319.633977,108.03158 310.711849,98.526008 310.711849,81.4763313 Z M327.346325,25.499074 L327.346325,82.5325059 C327.346325,90.2274928 330.67322,92.9433705 335.966008,92.9433705 C341.258796,92.9433705 344.585691,90.2274928 344.585691,82.5325059 L344.585691,25.499074 C344.585691,17.8040872 341.258796,15.0882095 335.966008,15.0882095 C330.67322,15.0882095 327.346325,17.8040872 327.346325,25.499074 Z M396.102159,1.20705676 L443.283582,1.20705676 L443.283582,15.9935021 L411.678078,91.7363137 L443.283582,91.7363137 L443.283582,106.824523 L394.589934,106.824523 L394.589934,92.0380779 L426.195439,16.2952663 L396.102159,16.2952663 L396.102159,1.20705676 Z" id="AFINOZ-Copy-9" fill="#40439E"></path>
                    <path d="M0,158.846818 L0,126.381019 L7.29804343,126.381019 C13.433978,126.381019 16.9667889,129.859498 16.9667889,135.88886 L16.9667889,149.385357 C16.9667889,155.36834 13.3410093,158.846818 7.29804343,158.846818 L0,158.846818 Z M2.88202989,156.110415 L7.29804343,156.110415 C11.6210883,156.110415 14.084759,153.791429 14.084759,149.246218 L14.084759,136.027999 C14.084759,131.436408 11.6675726,129.117422 7.29804343,129.117422 L2.88202989,129.117422 L2.88202989,156.110415 Z M30.5113241,129.998637 C29.1632779,129.998637 28.2800752,129.117422 28.2800752,127.77241 C28.2800752,126.427399 29.1632779,125.546184 30.5113241,125.546184 C31.8593704,125.546184 32.7425731,126.427399 32.7425731,127.77241 C32.7425731,129.117422 31.8593704,129.998637 30.5113241,129.998637 Z M29.1632779,158.846818 L29.1632779,134.497469 L31.9058547,134.497469 L31.9058547,158.846818 L29.1632779,158.846818 Z M57.5828061,134.497469 L59.8605394,134.497469 L59.8605394,160.516488 C59.8605394,164.876181 56.7925721,167.798103 52.0976525,167.798103 C47.5886702,167.798103 44.5671873,165.0617 44.3347655,160.748386 L46.9843736,160.748386 C47.2167954,163.670308 49.0761695,165.247219 52.0976525,165.247219 C55.2121041,165.247219 57.1179626,163.484789 57.1179626,160.516488 L57.1179626,155.785757 C55.862885,157.316288 54.0035109,158.104743 51.7257776,158.104743 C47.030858,158.104743 43.869922,154.997302 43.869922,149.431736 L43.869922,143.170475 C43.869922,137.094733 47.030858,133.940912 51.6328089,133.940912 C54.0035109,133.940912 55.9093694,135.007646 57.2109313,136.955594 L57.5828061,134.497469 Z M52.1906212,155.507479 C55.2585885,155.507479 57.1179626,153.559531 57.1179626,149.431736 L57.1179626,142.706678 C57.1179626,138.486124 54.8867136,136.538176 52.1906212,136.538176 C48.750779,136.538176 46.6589831,138.486124 46.6589831,143.170475 L46.6589831,149.431736 C46.6589831,153.559531 48.750779,155.507479 52.1906212,155.507479 Z M73.7769495,129.998637 C72.4289033,129.998637 71.5457005,129.117422 71.5457005,127.77241 C71.5457005,126.427399 72.4289033,125.546184 73.7769495,125.546184 C75.1249957,125.546184 76.0081984,126.427399 76.0081984,127.77241 C76.0081984,129.117422 75.1249957,129.998637 73.7769495,129.998637 Z M72.4289033,158.846818 L72.4289033,134.497469 L75.1714801,134.497469 L75.1714801,158.846818 L72.4289033,158.846818 Z M96.1535118,156.481453 L97.5480424,156.481453 L97.5480424,159.078717 L96.1535118,159.078717 C91.6910139,159.078717 89.2273432,156.295934 89.2273432,151.611583 L89.2273432,137.048353 L85.508595,137.048353 L85.508595,134.497469 L89.2273432,134.497469 L89.2273432,128.885524 L91.9699201,128.885524 L91.9699201,134.497469 L96.9902302,134.497469 L96.9902302,137.048353 L91.9699201,137.048353 L91.9699201,151.611583 C91.9699201,154.811783 93.2714819,156.481453 96.1535118,156.481453 Z M115.136716,133.940912 C119.785152,133.940912 122.620697,137.048353 122.620697,142.010982 L122.620697,158.846818 L120.249995,158.846818 L120.017573,156.574212 C118.901949,158.197502 117.042575,159.403375 114.392967,159.403375 C109.930469,159.403375 106.676564,156.666972 106.676564,151.936241 C106.676564,147.25189 109.698047,144.654626 115.043748,144.654626 L119.87812,144.654626 L119.87812,142.057362 C119.87812,138.486124 118.204684,136.584556 115.043748,136.584556 C112.254687,136.584556 110.348828,138.161466 110.162891,140.85149 L107.420314,140.85149 C107.606251,136.677315 110.627734,133.940912 115.136716,133.940912 Z M114.811326,156.713351 C117.925778,156.713351 119.87812,154.765403 119.87812,151.982621 L119.87812,147.20551 L114.950779,147.20551 C111.371484,147.20551 109.465625,148.87518 109.465625,151.982621 C109.465625,155.182821 111.65039,156.713351 114.811326,156.713351 Z M135.328514,158.846818 L135.328514,125.314286 L138.071091,125.314286 L138.071091,158.846818 L135.328514,158.846818 Z M152.126954,129.998637 C150.778908,129.998637 149.895705,129.117422 149.895705,127.77241 C149.895705,126.427399 150.778908,125.546184 152.126954,125.546184 C153.475,125.546184 154.358203,126.427399 154.358203,127.77241 C154.358203,129.117422 153.475,129.998637 152.126954,129.998637 Z M150.778908,158.846818 L150.778908,134.497469 L153.521485,134.497469 L153.521485,158.846818 L150.778908,158.846818 Z M167.06602,156.295934 L178.408202,156.295934 L178.408202,158.846818 L163.765631,158.846818 L163.765631,156.620592 L174.735938,137.048353 L164.276959,137.048353 L164.276959,134.497469 L178.036327,134.497469 L178.036327,136.677315 L167.06602,156.295934 Z M190.465238,129.998637 C189.117192,129.998637 188.233989,129.117422 188.233989,127.77241 C188.233989,126.427399 189.117192,125.546184 190.465238,125.546184 C191.813284,125.546184 192.696487,126.427399 192.696487,127.77241 C192.696487,129.117422 191.813284,129.998637 190.465238,129.998637 Z M189.117192,158.846818 L189.117192,134.497469 L191.859769,134.497469 L191.859769,158.846818 L189.117192,158.846818 Z M213.492581,133.940912 C217.443751,133.940912 220.046875,136.584556 220.046875,143.263235 L220.046875,158.846818 L217.304298,158.846818 L217.304298,143.680652 C217.304298,138.764402 216.002736,136.538176 212.795316,136.538176 C209.401958,136.538176 207.170709,139.367339 207.170709,144.098069 L207.170709,158.846818 L204.428133,158.846818 L204.428133,134.497469 L206.705866,134.497469 L207.170709,137.51215 C208.425787,135.332304 210.517583,133.940912 213.492581,133.940912 Z M245.44492,134.497469 L247.722654,134.497469 L247.722654,160.516488 C247.722654,164.876181 244.654686,167.798103 239.959767,167.798103 C235.450785,167.798103 232.429302,165.0617 232.19688,160.748386 L234.846488,160.748386 C235.07891,163.670308 236.938284,165.247219 239.959767,165.247219 C243.074218,165.247219 244.980077,163.484789 244.980077,160.516488 L244.980077,155.785757 C243.724999,157.316288 241.865625,158.104743 239.587892,158.104743 C234.892972,158.104743 231.732036,154.997302 231.732036,149.431736 L231.732036,143.170475 C231.732036,137.094733 234.892972,133.940912 239.494923,133.940912 C241.865625,133.940912 243.771484,135.007646 245.073046,136.955594 L245.44492,134.497469 Z M240.052735,155.507479 C243.120703,155.507479 244.980077,153.559531 244.980077,149.431736 L244.980077,142.706678 C244.980077,138.486124 242.748828,136.538176 240.052735,136.538176 C236.612893,136.538176 234.521097,138.486124 234.521097,143.170475 L234.521097,149.431736 C234.521097,153.559531 236.612893,155.507479 240.052735,155.507479 Z M292.568747,129.024663 L280.761721,129.024663 L280.761721,141.500806 L291.778513,141.500806 L291.778513,144.144449 L280.761721,144.144449 L280.761721,158.846818 L277.879692,158.846818 L277.879692,126.381019 L292.568747,126.381019 L292.568747,129.024663 Z M304.021486,129.998637 C302.67344,129.998637 301.790238,129.117422 301.790238,127.77241 C301.790238,126.427399 302.67344,125.546184 304.021486,125.546184 C305.369533,125.546184 306.252735,126.427399 306.252735,127.77241 C306.252735,129.117422 305.369533,129.998637 304.021486,129.998637 Z M302.67344,158.846818 L302.67344,134.497469 L305.416017,134.497469 L305.416017,158.846818 L302.67344,158.846818 Z M327.04883,133.940912 C331,133.940912 333.603124,136.584556 333.603124,143.263235 L333.603124,158.846818 L330.860547,158.846818 L330.860547,143.680652 C330.860547,138.764402 329.558985,136.538176 326.351564,136.538176 C322.958207,136.538176 320.726958,139.367339 320.726958,144.098069 L320.726958,158.846818 L317.984381,158.846818 L317.984381,134.497469 L320.262114,134.497469 L320.726958,137.51215 C321.982035,135.332304 324.073831,133.940912 327.04883,133.940912 Z M353.051172,133.940912 C357.699607,133.940912 360.535152,137.048353 360.535152,142.010982 L360.535152,158.846818 L358.16445,158.846818 L357.932029,156.574212 C356.816404,158.197502 354.95703,159.403375 352.307422,159.403375 C347.844924,159.403375 344.591019,156.666972 344.591019,151.936241 C344.591019,147.25189 347.612502,144.654626 352.958203,144.654626 L357.792576,144.654626 L357.792576,142.057362 C357.792576,138.486124 356.119139,136.584556 352.958203,136.584556 C350.169142,136.584556 348.263283,138.161466 348.077346,140.85149 L345.334769,140.85149 C345.520706,136.677315 348.542189,133.940912 353.051172,133.940912 Z M352.725781,156.713351 C355.840233,156.713351 357.792576,154.765403 357.792576,151.982621 L357.792576,147.20551 L352.865234,147.20551 C349.285939,147.20551 347.380081,148.87518 347.380081,151.982621 C347.380081,155.182821 349.564845,156.713351 352.725781,156.713351 Z M382.167965,133.940912 C386.119135,133.940912 388.722259,136.584556 388.722259,143.263235 L388.722259,158.846818 L385.979682,158.846818 L385.979682,143.680652 C385.979682,138.764402 384.67812,136.538176 381.4707,136.538176 C378.077342,136.538176 375.846093,139.367339 375.846093,144.098069 L375.846093,158.846818 L373.103516,158.846818 L373.103516,134.497469 L375.38125,134.497469 L375.846093,137.51215 C377.101171,135.332304 379.192967,133.940912 382.167965,133.940912 Z M408.216791,159.310615 C403.521872,159.310615 400.40742,156.203175 400.40742,150.637609 L400.40742,142.613919 C400.40742,137.048353 403.521872,133.940912 408.216791,133.940912 C413.051164,133.940912 416.119131,137.048353 416.258584,142.613919 L413.469523,142.613919 C413.33007,138.532504 411.470696,136.630936 408.216791,136.630936 C405.10234,136.630936 403.196481,138.532504 403.196481,142.613919 L403.196481,150.637609 C403.196481,154.719024 405.10234,156.620592 408.216791,156.620592 C411.470696,156.620592 413.376555,154.719024 413.516008,150.637609 L416.305069,150.637609 C416.165616,156.203175 413.051164,159.310615 408.216791,159.310615 Z M440.541005,151.379684 L443.283582,151.379684 C442.911707,156.481453 439.890224,159.310615 434.776945,159.310615 C430.035541,159.310615 426.92109,156.203175 426.92109,150.637609 L426.92109,142.613919 C426.92109,137.048353 430.082026,133.940912 434.82343,133.940912 C439.704287,133.940912 442.958192,137.048353 442.958192,142.613919 L442.958192,147.993965 L429.710151,147.993965 L429.710151,150.637609 C429.710151,154.719024 431.662494,156.620592 434.869914,156.620592 C438.402725,156.620592 440.16913,154.950922 440.541005,151.379684 Z M434.869914,136.630936 C431.662494,136.630936 429.710151,138.532504 429.710151,142.613919 L429.710151,145.443081 L440.215615,145.443081 L440.215615,142.613919 C440.215615,138.532504 438.216788,136.630936 434.869914,136.630936 Z" id="Digitalizing-Finance" fill="#5256BE"></path>
                </g>
                <g id="Group-20">
                    <path d="M82.4857622,0.0950583272 C73.4917328,63.328032 44.6234451,122.135706 0,168.165448 L50.0613615,168.165448 C87.3255225,121.012157 111.555389,64.7850116 120.006653,5.0444867 C108.140536,3.39622763 96.2732468,1.74389879 84.4083023,0.0950583272 L82.4857622,0.0950583272" id="Fill-3" fill="#5C81D7"></path>
                    <path d="M0.164705417,168.165448 L72.3414325,168.165448 C104.128699,152.760476 138.44135,142.904352 173.764215,139.103763 C166.554689,127.705485 160.042085,115.916508 154.257173,103.800205 C98.5712097,112.325222 45.5949726,134.325847 0.164705417,168.165448 Z" id="Fill-4" fill="#4955A7"></path>
                    <path d="M117.451374,4.65175337 C107.719394,3.29942512 97.9868279,1.94506198 88.255434,0.59244303 L82.4318373,0.350872786 C81.6604767,5.73692993 80.742288,11.0901382 79.6848909,16.4067184 C80.3730196,44.64253 84.5926434,72.5582828 92.154146,99.5371151 C103.896294,74.076309 112.484128,47.1634652 117.64187,19.3767824 C117.45958,14.4790983 117.393932,9.56920493 117.451374,4.65175337" id="Fill-5" fill="#000000" opacity="0.100000001"></path>
                    <path d="M134.253671,107.426084 C121.877612,110.071438 109.66919,113.390631 97.6826211,117.363604 C101.725817,129.235139 106.431351,140.891266 111.779881,152.277335 C124.000319,148.322676 136.475143,145.132554 149.130204,142.726735 C143.418267,131.26334 138.453952,119.471166 134.253671,107.426084" id="Fill-6" fill="#000000" opacity="0.100000001"></path>
                    <path d="M120.389109,0.0950583272 L82.5341188,0.0950583272 C83.6445615,59.5306408 100.39352,117.427557 130.808046,168.165448 L175.842082,168.165448 C141.004542,118.894711 121.657517,60.4065146 120.389109,0.0950583272" id="Fill-7" fill="#555EB8"></path>
                </g>
            </g>
        </g>
    </g>
</svg>